<svg width="14" height="14" viewBox="0 0 14 14" fill="none" xmlns="http://www.w3.org/2000/svg">
<path d="M0.333374 0.333008V2.66634C1.06671 2.66634 1.66671 3.41301 1.66671 4.33301C1.66671 5.25301 1.06671 5.99967 0.333374 5.99967V7.99967C1.06671 7.99967 1.66671 8.74634 1.66671 9.66634C1.66671 10.5863 1.06671 11.333 0.333374 11.333V13.6663H2.66671C2.66671 12.933 3.41337 12.333 4.33337 12.333C5.25337 12.333 6.00004 12.933 6.00004 13.6663H8.00004C8.00004 12.933 8.74671 12.333 9.66671 12.333C10.5867 12.333 11.3334 12.933 11.3334 13.6663H13.6667V11.333C12.9334 11.333 12.3334 10.5863 12.3334 9.66634C12.3334 8.74634 12.9334 7.99967 13.6667 7.99967V5.99967C12.9334 5.99967 12.3334 5.25301 12.3334 4.33301C12.3334 3.41301 12.9334 2.66634 13.6667 2.66634V0.333008H11.3334C11.3334 1.06634 10.5867 1.66634 9.66671 1.66634C8.74671 1.66634 8.00004 1.06634 8.00004 0.333008H6.00004C6.00004 1.06634 5.25337 1.66634 4.33337 1.66634C3.41337 1.66634 2.66671 1.06634 2.66671 0.333008H0.333374ZM3.00004 2.99967H11V10.9997H3.00004V2.99967ZM5.00004 3.66634C4.64642 3.66634 4.30728 3.80682 4.05723 4.05687C3.80718 4.30691 3.66671 4.64605 3.66671 4.99967C3.66671 5.3533 3.80718 5.69243 4.05723 5.94248C4.30728 6.19253 4.64642 6.33301 5.00004 6.33301C5.35366 6.33301 5.6928 6.19253 5.94285 5.94248C6.1929 5.69243 6.33337 5.3533 6.33337 4.99967C6.33337 4.64605 6.1929 4.30691 5.94285 4.05687C5.6928 3.80682 5.35366 3.66634 5.00004 3.66634ZM10.3334 5.66634L8.33337 7.66634L7.00004 6.99967L3.66671 10.333H10.3334V5.66634Z" fill="#E8DBF1"/>
</svg>
