<svg xmlns="http://www.w3.org/2000/svg" xmlns:xlink="http://www.w3.org/1999/xlink" width="1024" zoomAndPan="magnify" viewBox="0 0 768 767.999994" height="1024" preserveAspectRatio="xMidYMid meet" version="1.0"><defs><filter x="0%" y="0%" width="100%" height="100%" id="ebd0bcf6c4"><feColorMatrix values="0 0 0 0 1 0 0 0 0 1 0 0 0 0 1 0 0 0 1 0" color-interpolation-filters="sRGB"/></filter><g/><clipPath id="c5e7fe0b9b"><path d="M 213 190.195312 L 454 190.195312 L 454 481 L 213 481 Z M 213 190.195312 " clip-rule="nonzero"/></clipPath><mask id="8812073e1a"><g filter="url(#ebd0bcf6c4)"><rect x="-76.8" width="921.6" fill="#000000" y="-76.799999" height="921.599993" fill-opacity="0.4"/></g></mask><clipPath id="9dbcf36bba"><rect x="0" width="17" y="0" height="101"/></clipPath><mask id="b4c355b568"><g filter="url(#ebd0bcf6c4)"><rect x="-76.8" width="921.6" fill="#000000" y="-76.799999" height="921.599993" fill-opacity="0.4"/></g></mask><clipPath id="378f7a3f0f"><rect x="0" width="102" y="0" height="17"/></clipPath><mask id="4cd05f2704"><g filter="url(#ebd0bcf6c4)"><rect x="-76.8" width="921.6" fill="#000000" y="-76.799999" height="921.599993" fill-opacity="0.4"/></g></mask><clipPath id="0a34c91995"><rect x="0" width="63" y="0" height="17"/></clipPath><mask id="3289b1c023"><g filter="url(#ebd0bcf6c4)"><rect x="-76.8" width="921.6" fill="#000000" y="-76.799999" height="921.599993" fill-opacity="0.4"/></g></mask><clipPath id="237faac6e0"><rect x="0" width="63" y="0" height="17"/></clipPath><clipPath id="8bb466873c"><path d="M 268.800781 237.277344 L 384.300781 237.277344 L 384.300781 352.777344 L 268.800781 352.777344 Z M 268.800781 237.277344 " clip-rule="nonzero"/></clipPath><clipPath id="053d596c97"><path d="M 468.226562 364.460938 L 533.476562 364.460938 L 533.476562 414.710938 L 468.226562 414.710938 Z M 468.226562 364.460938 " clip-rule="nonzero"/></clipPath><clipPath id="fe9b8ace54"><path d="M 465.453125 384 L 530.703125 384 L 530.703125 434.25 L 465.453125 434.25 Z M 465.453125 384 " clip-rule="nonzero"/></clipPath><clipPath id="664458465b"><path d="M 456.738281 402.621094 L 521.988281 402.621094 L 521.988281 452.871094 L 456.738281 452.871094 Z M 456.738281 402.621094 " clip-rule="nonzero"/></clipPath><clipPath id="2a004ddb5e"><path d="M 447.207031 414.734375 L 510.957031 414.734375 L 510.957031 463.484375 L 447.207031 463.484375 Z M 447.207031 414.734375 " clip-rule="nonzero"/></clipPath><clipPath id="30a17ac03d"><path d="M 465.453125 404.121094 L 529.203125 404.121094 L 529.203125 452.871094 L 465.453125 452.871094 Z M 465.453125 404.121094 " clip-rule="nonzero"/></clipPath><clipPath id="889cb41467"><path d="M 503 445 L 545 445 L 545 477 L 503 477 Z M 503 445 " clip-rule="nonzero"/></clipPath><clipPath id="e9bbd209c3"><path d="M 498.253906 457.722656 L 538.386719 439.085938 L 549.757812 463.574219 L 509.625 482.210938 Z M 498.253906 457.722656 " clip-rule="nonzero"/></clipPath></defs><path fill="#e8e8e8" d="M 711.808594 383.847656 C 711.808594 389.207031 711.679688 394.566406 711.414062 399.921875 C 711.152344 405.273438 710.757812 410.617188 710.230469 415.953125 C 709.707031 421.289062 709.050781 426.609375 708.265625 431.910156 C 707.476562 437.214844 706.5625 442.492188 705.515625 447.75 C 704.46875 453.007812 703.296875 458.238281 701.992188 463.4375 C 700.691406 468.636719 699.261719 473.800781 697.707031 478.933594 C 696.148438 484.0625 694.46875 489.152344 692.660156 494.199219 C 690.855469 499.246094 688.925781 504.246094 686.875 509.199219 C 684.824219 514.152344 682.652344 519.050781 680.359375 523.894531 C 678.070312 528.742188 675.660156 533.527344 673.132812 538.257812 C 670.605469 542.984375 667.964844 547.648438 665.207031 552.246094 C 662.453125 556.84375 659.585938 561.371094 656.605469 565.828125 C 653.628906 570.285156 650.542969 574.667969 647.347656 578.972656 C 644.15625 583.277344 640.859375 587.503906 637.457031 591.648438 C 634.058594 595.792969 630.554688 599.847656 626.957031 603.820312 C 623.355469 607.792969 619.660156 611.675781 615.871094 615.464844 C 612.082031 619.253906 608.199219 622.949219 604.226562 626.550781 C 600.253906 630.152344 596.195312 633.652344 592.054688 637.050781 C 587.910156 640.453125 583.683594 643.75 579.378906 646.941406 C 575.074219 650.136719 570.691406 653.222656 566.234375 656.199219 C 561.777344 659.179688 557.25 662.046875 552.652344 664.800781 C 548.054688 667.558594 543.390625 670.199219 538.664062 672.726562 C 533.933594 675.253906 529.148438 677.664062 524.300781 679.953125 C 519.457031 682.246094 514.554688 684.417969 509.605469 686.46875 C 504.652344 688.523438 499.652344 690.449219 494.605469 692.257812 C 489.554688 694.0625 484.46875 695.742188 479.339844 697.300781 C 474.207031 698.855469 469.042969 700.285156 463.84375 701.585938 C 458.644531 702.890625 453.414062 704.0625 448.15625 705.109375 C 442.898438 706.15625 437.617188 707.070312 432.316406 707.859375 C 427.011719 708.644531 421.695312 709.300781 416.359375 709.828125 C 411.023438 710.351562 405.679688 710.746094 400.324219 711.007812 C 394.972656 711.273438 389.613281 711.402344 384.253906 711.402344 C 378.894531 711.402344 373.535156 711.273438 368.179688 711.007812 C 362.828125 710.746094 357.480469 710.351562 352.148438 709.828125 C 346.8125 709.300781 341.492188 708.644531 336.191406 707.859375 C 330.886719 707.070312 325.609375 706.15625 320.351562 705.109375 C 315.09375 704.0625 309.863281 702.890625 304.664062 701.585938 C 299.464844 700.285156 294.296875 698.855469 289.167969 697.300781 C 284.039062 695.742188 278.949219 694.0625 273.902344 692.257812 C 268.855469 690.449219 263.855469 688.523438 258.902344 686.46875 C 253.949219 684.417969 249.050781 682.246094 244.207031 679.953125 C 239.359375 677.664062 234.570312 675.253906 229.84375 672.726562 C 225.117188 670.199219 220.453125 667.558594 215.855469 664.800781 C 211.257812 662.046875 206.730469 659.179688 202.273438 656.199219 C 197.816406 653.222656 193.433594 650.136719 189.128906 646.945312 C 184.824219 643.75 180.597656 640.453125 176.453125 637.050781 C 172.308594 633.652344 168.253906 630.152344 164.28125 626.550781 C 160.308594 622.949219 156.425781 619.253906 152.636719 615.464844 C 148.84375 611.675781 145.148438 607.792969 141.550781 603.820312 C 137.949219 599.847656 134.449219 595.792969 131.050781 591.648438 C 127.648438 587.503906 124.351562 583.277344 121.15625 578.972656 C 117.964844 574.667969 114.878906 570.285156 111.902344 565.828125 C 108.921875 561.371094 106.054688 556.84375 103.300781 552.246094 C 100.542969 547.648438 97.902344 542.984375 95.375 538.257812 C 92.847656 533.527344 90.4375 528.742188 88.144531 523.894531 C 85.855469 519.050781 83.683594 514.152344 81.632812 509.199219 C 79.578125 504.246094 77.652344 499.246094 75.84375 494.199219 C 74.039062 489.152344 72.359375 484.0625 70.800781 478.933594 C 69.246094 473.800781 67.816406 468.636719 66.515625 463.4375 C 65.210938 458.238281 64.035156 453.007812 62.992188 447.75 C 61.945312 442.492188 61.027344 437.214844 60.242188 431.910156 C 59.457031 426.609375 58.800781 421.289062 58.273438 415.953125 C 57.75 410.617188 57.355469 405.273438 57.09375 399.921875 C 56.828125 394.566406 56.699219 389.207031 56.699219 383.847656 C 56.699219 378.488281 56.828125 373.128906 57.09375 367.777344 C 57.355469 362.421875 57.75 357.078125 58.273438 351.742188 C 58.800781 346.40625 59.457031 341.089844 60.242188 335.785156 C 61.027344 330.484375 61.945312 325.203125 62.992188 319.945312 C 64.035156 314.6875 65.210938 309.457031 66.515625 304.257812 C 67.816406 299.058594 69.246094 293.894531 70.800781 288.761719 C 72.359375 283.632812 74.039062 278.542969 75.84375 273.496094 C 77.652344 268.449219 79.578125 263.449219 81.632812 258.496094 C 83.683594 253.542969 85.855469 248.644531 88.144531 243.800781 C 90.4375 238.953125 92.847656 234.167969 95.375 229.4375 C 97.902344 224.710938 100.542969 220.046875 103.300781 215.449219 C 106.054688 210.851562 108.921875 206.324219 111.902344 201.867188 C 114.878906 197.410156 117.964844 193.027344 121.15625 188.722656 C 124.351562 184.417969 127.648438 180.191406 131.050781 176.046875 C 134.449219 171.90625 137.949219 167.847656 141.550781 163.875 C 145.148438 159.902344 148.84375 156.019531 152.636719 152.230469 C 156.425781 148.441406 160.308594 144.746094 164.28125 141.144531 C 168.253906 137.542969 172.308594 134.042969 176.453125 130.644531 C 180.597656 127.242188 184.824219 123.945312 189.128906 120.753906 C 193.433594 117.558594 197.816406 114.472656 202.273438 111.496094 C 206.730469 108.515625 211.257812 105.648438 215.855469 102.894531 C 220.453125 100.136719 225.117188 97.496094 229.84375 94.96875 C 234.574219 92.441406 239.359375 90.03125 244.207031 87.742188 C 249.050781 85.449219 253.949219 83.277344 258.902344 81.226562 C 263.855469 79.175781 268.855469 77.246094 273.902344 75.4375 C 278.949219 73.632812 284.039062 71.953125 289.167969 70.394531 C 294.296875 68.839844 299.464844 67.410156 304.664062 66.109375 C 309.863281 64.804688 315.09375 63.632812 320.351562 62.585938 C 325.609375 61.539062 330.886719 60.625 336.191406 59.835938 C 341.492188 59.050781 346.8125 58.394531 352.148438 57.867188 C 357.480469 57.34375 362.828125 56.949219 368.179688 56.6875 C 373.535156 56.421875 378.894531 56.292969 384.253906 56.292969 C 389.613281 56.292969 394.972656 56.421875 400.324219 56.6875 C 405.679688 56.949219 411.023438 57.34375 416.359375 57.867188 C 421.695312 58.394531 427.011719 59.050781 432.316406 59.835938 C 437.617188 60.625 442.898438 61.539062 448.15625 62.585938 C 453.414062 63.632812 458.644531 64.804688 463.84375 66.109375 C 469.042969 67.410156 474.207031 68.839844 479.339844 70.394531 C 484.46875 71.953125 489.554688 73.632812 494.605469 75.4375 C 499.652344 77.246094 504.652344 79.175781 509.605469 81.226562 C 514.554688 83.277344 519.457031 85.449219 524.300781 87.742188 C 529.148438 90.03125 533.933594 92.441406 538.664062 94.96875 C 543.390625 97.496094 548.054688 100.136719 552.652344 102.894531 C 557.25 105.648438 561.777344 108.515625 566.234375 111.496094 C 570.691406 114.472656 575.074219 117.558594 579.378906 120.753906 C 583.683594 123.945312 587.910156 127.242188 592.054688 130.644531 C 596.195312 134.042969 600.253906 137.542969 604.226562 141.144531 C 608.199219 144.746094 612.082031 148.441406 615.871094 152.230469 C 619.660156 156.019531 623.355469 159.902344 626.957031 163.875 C 630.554688 167.847656 634.058594 171.90625 637.457031 176.046875 C 640.859375 180.191406 644.15625 184.417969 647.347656 188.722656 C 650.542969 193.027344 653.628906 197.410156 656.605469 201.867188 C 659.585938 206.324219 662.453125 210.851562 665.207031 215.449219 C 667.964844 220.046875 670.605469 224.710938 673.132812 229.4375 C 675.660156 234.167969 678.070312 238.953125 680.359375 243.800781 C 682.652344 248.644531 684.824219 253.542969 686.875 258.496094 C 688.925781 263.449219 690.855469 268.449219 692.660156 273.496094 C 694.46875 278.542969 696.148438 283.632812 697.707031 288.761719 C 699.261719 293.894531 700.691406 299.058594 701.992188 304.257812 C 703.296875 309.457031 704.46875 314.6875 705.515625 319.945312 C 706.5625 325.203125 707.476562 330.484375 708.265625 335.785156 C 709.050781 341.089844 709.707031 346.40625 710.230469 351.742188 C 710.757812 357.078125 711.152344 362.421875 711.414062 367.777344 C 711.679688 373.128906 711.808594 378.488281 711.808594 383.847656 Z M 711.808594 383.847656 " fill-opacity="1" fill-rule="nonzero"/><path fill="#e8e8e8" d="M 711.808594 383.847656 C 711.808594 389.207031 711.679688 394.566406 711.414062 399.921875 C 711.152344 405.273438 710.757812 410.617188 710.230469 415.953125 C 709.707031 421.289062 709.050781 426.609375 708.265625 431.910156 C 707.476562 437.214844 706.5625 442.492188 705.515625 447.75 C 704.46875 453.007812 703.296875 458.238281 701.992188 463.4375 C 700.691406 468.636719 699.261719 473.800781 697.707031 478.933594 C 696.148438 484.0625 694.46875 489.152344 692.660156 494.199219 C 690.855469 499.246094 688.925781 504.246094 686.875 509.199219 C 684.824219 514.152344 682.652344 519.050781 680.359375 523.894531 C 678.070312 528.742188 675.660156 533.527344 673.132812 538.257812 C 670.605469 542.984375 667.964844 547.648438 665.207031 552.246094 C 662.453125 556.84375 659.585938 561.371094 656.605469 565.828125 C 653.628906 570.285156 650.542969 574.667969 647.347656 578.972656 C 644.15625 583.277344 640.859375 587.503906 637.457031 591.648438 C 634.058594 595.792969 630.554688 599.847656 626.957031 603.820312 C 623.355469 607.792969 619.660156 611.675781 615.871094 615.464844 C 612.082031 619.253906 608.199219 622.949219 604.226562 626.550781 C 600.253906 630.152344 596.195312 633.652344 592.054688 637.050781 C 587.910156 640.453125 583.683594 643.75 579.378906 646.941406 C 575.074219 650.136719 570.691406 653.222656 566.234375 656.199219 C 561.777344 659.179688 557.25 662.046875 552.652344 664.800781 C 548.054688 667.558594 543.390625 670.199219 538.664062 672.726562 C 533.933594 675.253906 529.148438 677.664062 524.300781 679.953125 C 519.457031 682.246094 514.554688 684.417969 509.605469 686.46875 C 504.652344 688.523438 499.652344 690.449219 494.605469 692.257812 C 489.554688 694.0625 484.46875 695.742188 479.339844 697.300781 C 474.207031 698.855469 469.042969 700.285156 463.84375 701.585938 C 458.644531 702.890625 453.414062 704.0625 448.15625 705.109375 C 442.898438 706.15625 437.617188 707.070312 432.316406 707.859375 C 427.011719 708.644531 421.695312 709.300781 416.359375 709.828125 C 411.023438 710.351562 405.679688 710.746094 400.324219 711.007812 C 394.972656 711.273438 389.613281 711.402344 384.253906 711.402344 C 378.894531 711.402344 373.535156 711.273438 368.179688 711.007812 C 362.828125 710.746094 357.480469 710.351562 352.148438 709.828125 C 346.8125 709.300781 341.492188 708.644531 336.191406 707.859375 C 330.886719 707.070312 325.609375 706.15625 320.351562 705.109375 C 315.09375 704.0625 309.863281 702.890625 304.664062 701.585938 C 299.464844 700.285156 294.296875 698.855469 289.167969 697.300781 C 284.039062 695.742188 278.949219 694.0625 273.902344 692.257812 C 268.855469 690.449219 263.855469 688.523438 258.902344 686.46875 C 253.949219 684.417969 249.050781 682.246094 244.207031 679.953125 C 239.359375 677.664062 234.570312 675.253906 229.84375 672.726562 C 225.117188 670.199219 220.453125 667.558594 215.855469 664.800781 C 211.257812 662.046875 206.730469 659.179688 202.273438 656.199219 C 197.816406 653.222656 193.433594 650.136719 189.128906 646.945312 C 184.824219 643.75 180.597656 640.453125 176.453125 637.050781 C 172.308594 633.652344 168.253906 630.152344 164.28125 626.550781 C 160.308594 622.949219 156.425781 619.253906 152.636719 615.464844 C 148.84375 611.675781 145.148438 607.792969 141.550781 603.820312 C 137.949219 599.847656 134.449219 595.792969 131.050781 591.648438 C 127.648438 587.503906 124.351562 583.277344 121.15625 578.972656 C 117.964844 574.667969 114.878906 570.285156 111.902344 565.828125 C 108.921875 561.371094 106.054688 556.84375 103.300781 552.246094 C 100.542969 547.648438 97.902344 542.984375 95.375 538.257812 C 92.847656 533.527344 90.4375 528.742188 88.144531 523.894531 C 85.855469 519.050781 83.683594 514.152344 81.632812 509.199219 C 79.578125 504.246094 77.652344 499.246094 75.84375 494.199219 C 74.039062 489.152344 72.359375 484.0625 70.800781 478.933594 C 69.246094 473.800781 67.816406 468.636719 66.515625 463.4375 C 65.210938 458.238281 64.035156 453.007812 62.992188 447.75 C 61.945312 442.492188 61.027344 437.214844 60.242188 431.910156 C 59.457031 426.609375 58.800781 421.289062 58.273438 415.953125 C 57.75 410.617188 57.355469 405.273438 57.09375 399.921875 C 56.828125 394.566406 56.699219 389.207031 56.699219 383.847656 C 56.699219 378.488281 56.828125 373.128906 57.09375 367.777344 C 57.355469 362.421875 57.75 357.078125 58.273438 351.742188 C 58.800781 346.40625 59.457031 341.089844 60.242188 335.785156 C 61.027344 330.484375 61.945312 325.203125 62.992188 319.945312 C 64.035156 314.6875 65.210938 309.457031 66.515625 304.257812 C 67.816406 299.058594 69.246094 293.894531 70.800781 288.761719 C 72.359375 283.632812 74.039062 278.542969 75.84375 273.496094 C 77.652344 268.449219 79.578125 263.449219 81.632812 258.496094 C 83.683594 253.542969 85.855469 248.644531 88.144531 243.800781 C 90.4375 238.953125 92.847656 234.167969 95.375 229.4375 C 97.902344 224.710938 100.542969 220.046875 103.300781 215.449219 C 106.054688 210.851562 108.921875 206.324219 111.902344 201.867188 C 114.878906 197.410156 117.964844 193.027344 121.15625 188.722656 C 124.351562 184.417969 127.648438 180.191406 131.050781 176.046875 C 134.449219 171.90625 137.949219 167.847656 141.550781 163.875 C 145.148438 159.902344 148.84375 156.019531 152.636719 152.230469 C 156.425781 148.441406 160.308594 144.746094 164.28125 141.144531 C 168.253906 137.542969 172.308594 134.042969 176.453125 130.644531 C 180.597656 127.242188 184.824219 123.945312 189.128906 120.753906 C 193.433594 117.558594 197.816406 114.472656 202.273438 111.496094 C 206.730469 108.515625 211.257812 105.648438 215.855469 102.894531 C 220.453125 100.136719 225.117188 97.496094 229.84375 94.96875 C 234.574219 92.441406 239.359375 90.03125 244.207031 87.742188 C 249.050781 85.449219 253.949219 83.277344 258.902344 81.226562 C 263.855469 79.175781 268.855469 77.246094 273.902344 75.4375 C 278.949219 73.632812 284.039062 71.953125 289.167969 70.394531 C 294.296875 68.839844 299.464844 67.410156 304.664062 66.109375 C 309.863281 64.804688 315.09375 63.632812 320.351562 62.585938 C 325.609375 61.539062 330.886719 60.625 336.191406 59.835938 C 341.492188 59.050781 346.8125 58.394531 352.148438 57.867188 C 357.480469 57.34375 362.828125 56.949219 368.179688 56.6875 C 373.535156 56.421875 378.894531 56.292969 384.253906 56.292969 C 389.613281 56.292969 394.972656 56.421875 400.324219 56.6875 C 405.679688 56.949219 411.023438 57.34375 416.359375 57.867188 C 421.695312 58.394531 427.011719 59.050781 432.316406 59.835938 C 437.617188 60.625 442.898438 61.539062 448.15625 62.585938 C 453.414062 63.632812 458.644531 64.804688 463.84375 66.109375 C 469.042969 67.410156 474.207031 68.839844 479.339844 70.394531 C 484.46875 71.953125 489.554688 73.632812 494.605469 75.4375 C 499.652344 77.246094 504.652344 79.175781 509.605469 81.226562 C 514.554688 83.277344 519.457031 85.449219 524.300781 87.742188 C 529.148438 90.03125 533.933594 92.441406 538.664062 94.96875 C 543.390625 97.496094 548.054688 100.136719 552.652344 102.894531 C 557.25 105.648438 561.777344 108.515625 566.234375 111.496094 C 570.691406 114.472656 575.074219 117.558594 579.378906 120.753906 C 583.683594 123.945312 587.910156 127.242188 592.054688 130.644531 C 596.195312 134.042969 600.253906 137.542969 604.226562 141.144531 C 608.199219 144.746094 612.082031 148.441406 615.871094 152.230469 C 619.660156 156.019531 623.355469 159.902344 626.957031 163.875 C 630.554688 167.847656 634.058594 171.90625 637.457031 176.046875 C 640.859375 180.191406 644.15625 184.417969 647.347656 188.722656 C 650.542969 193.027344 653.628906 197.410156 656.605469 201.867188 C 659.585938 206.324219 662.453125 210.851562 665.207031 215.449219 C 667.964844 220.046875 670.605469 224.710938 673.132812 229.4375 C 675.660156 234.167969 678.070312 238.953125 680.359375 243.800781 C 682.652344 248.644531 684.824219 253.542969 686.875 258.496094 C 688.925781 263.449219 690.855469 268.449219 692.660156 273.496094 C 694.46875 278.542969 696.148438 283.632812 697.707031 288.761719 C 699.261719 293.894531 700.691406 299.058594 701.992188 304.257812 C 703.296875 309.457031 704.46875 314.6875 705.515625 319.945312 C 706.5625 325.203125 707.476562 330.484375 708.265625 335.785156 C 709.050781 341.089844 709.707031 346.40625 710.230469 351.742188 C 710.757812 357.078125 711.152344 362.421875 711.414062 367.777344 C 711.679688 373.128906 711.808594 378.488281 711.808594 383.847656 Z M 711.808594 383.847656 " fill-opacity="1" fill-rule="nonzero"/><path fill="#e8e8e8" d="M 435.371094 464.734375 L 332.78125 464.734375 C 332.214844 464.734375 331.648438 464.707031 331.085938 464.652344 C 330.519531 464.597656 329.960938 464.511719 329.40625 464.402344 C 328.851562 464.292969 328.300781 464.15625 327.757812 463.992188 C 327.21875 463.828125 326.683594 463.636719 326.160156 463.417969 C 325.636719 463.203125 325.128906 462.960938 324.628906 462.691406 C 324.128906 462.425781 323.644531 462.136719 323.171875 461.820312 C 322.703125 461.507812 322.246094 461.167969 321.808594 460.808594 C 321.371094 460.449219 320.953125 460.070312 320.550781 459.671875 C 320.152344 459.269531 319.769531 458.851562 319.410156 458.414062 C 319.050781 457.976562 318.714844 457.519531 318.402344 457.050781 C 318.085938 456.578125 317.796875 456.09375 317.527344 455.59375 C 317.261719 455.09375 317.019531 454.582031 316.804688 454.058594 C 316.585938 453.535156 316.394531 453.003906 316.230469 452.460938 C 316.066406 451.921875 315.929688 451.371094 315.820312 450.816406 C 315.707031 450.261719 315.625 449.699219 315.570312 449.136719 C 315.515625 448.574219 315.488281 448.007812 315.488281 447.441406 C 315.488281 446.875 315.515625 446.3125 315.570312 445.746094 C 315.625 445.183594 315.707031 444.625 315.820312 444.066406 C 315.929688 443.511719 316.066406 442.964844 316.230469 442.421875 C 316.394531 441.878906 316.585938 441.347656 316.804688 440.824219 C 317.019531 440.300781 317.261719 439.789062 317.527344 439.289062 C 317.796875 438.789062 318.085938 438.304688 318.402344 437.835938 C 318.714844 437.363281 319.050781 436.910156 319.410156 436.472656 C 319.769531 436.035156 320.152344 435.613281 320.550781 435.214844 C 320.953125 434.8125 321.371094 434.433594 321.808594 434.074219 C 322.246094 433.714844 322.699219 433.378906 323.171875 433.0625 C 323.644531 432.75 324.128906 432.457031 324.628906 432.191406 C 325.128906 431.925781 325.636719 431.683594 326.160156 431.464844 C 326.683594 431.25 327.21875 431.058594 327.757812 430.894531 C 328.300781 430.730469 328.851562 430.589844 329.40625 430.480469 C 329.960938 430.371094 330.519531 430.289062 331.085938 430.230469 C 331.648438 430.175781 332.214844 430.148438 332.78125 430.148438 L 435.371094 430.148438 C 435.9375 430.148438 436.503906 430.175781 437.066406 430.230469 C 437.632812 430.289062 438.191406 430.371094 438.746094 430.480469 C 439.300781 430.589844 439.851562 430.730469 440.390625 430.894531 C 440.933594 431.058594 441.46875 431.25 441.988281 431.464844 C 442.511719 431.683594 443.023438 431.925781 443.523438 432.191406 C 444.023438 432.457031 444.507812 432.75 444.980469 433.0625 C 445.449219 433.378906 445.90625 433.714844 446.34375 434.074219 C 446.78125 434.433594 447.199219 434.8125 447.601562 435.214844 C 448 435.613281 448.378906 436.035156 448.738281 436.472656 C 449.097656 436.910156 449.4375 437.363281 449.75 437.835938 C 450.066406 438.304688 450.355469 438.789062 450.625 439.289062 C 450.890625 439.789062 451.132812 440.300781 451.347656 440.824219 C 451.566406 441.347656 451.757812 441.878906 451.921875 442.421875 C 452.085938 442.964844 452.222656 443.511719 452.332031 444.066406 C 452.445312 444.625 452.527344 445.183594 452.582031 445.746094 C 452.636719 446.3125 452.664062 446.875 452.664062 447.441406 C 452.664062 448.007812 452.636719 448.574219 452.582031 449.136719 C 452.527344 449.699219 452.445312 450.261719 452.332031 450.816406 C 452.222656 451.371094 452.085938 451.921875 451.921875 452.460938 C 451.757812 453.003906 451.566406 453.535156 451.347656 454.058594 C 451.132812 454.582031 450.890625 455.09375 450.625 455.59375 C 450.355469 456.09375 450.066406 456.578125 449.75 457.050781 C 449.4375 457.519531 449.097656 457.976562 448.738281 458.414062 C 448.382812 458.851562 448 459.269531 447.601562 459.671875 C 447.199219 460.070312 446.78125 460.449219 446.34375 460.808594 C 445.90625 461.167969 445.449219 461.507812 444.980469 461.820312 C 444.507812 462.136719 444.023438 462.425781 443.523438 462.691406 C 443.023438 462.960938 442.511719 463.203125 441.988281 463.417969 C 441.46875 463.636719 440.933594 463.828125 440.390625 463.992188 C 439.851562 464.15625 439.300781 464.292969 438.746094 464.402344 C 438.191406 464.511719 437.632812 464.597656 437.066406 464.652344 C 436.503906 464.707031 435.9375 464.734375 435.371094 464.734375 M 332.78125 326.339844 L 383.492188 326.339844 C 384.078125 326.308594 384.667969 326.304688 385.253906 326.332031 C 385.839844 326.359375 386.425781 326.417969 387.003906 326.507812 C 387.585938 326.59375 388.160156 326.710938 388.730469 326.855469 C 389.300781 327 389.859375 327.175781 390.414062 327.378906 C 390.964844 327.582031 391.503906 327.8125 392.03125 328.066406 C 392.558594 328.324219 393.074219 328.609375 393.574219 328.917969 C 394.074219 329.230469 394.554688 329.5625 395.019531 329.921875 C 395.484375 330.28125 395.933594 330.664062 396.359375 331.066406 C 396.785156 331.46875 397.191406 331.894531 397.574219 332.339844 C 397.957031 332.785156 398.316406 333.25 398.652344 333.730469 C 398.988281 334.214844 399.300781 334.710938 399.585938 335.222656 C 399.871094 335.738281 400.128906 336.265625 400.363281 336.804688 C 400.59375 337.34375 400.800781 337.894531 400.976562 338.453125 C 401.152344 339.015625 401.300781 339.582031 401.417969 340.160156 C 401.535156 340.734375 401.625 341.316406 401.683594 341.898438 C 401.746094 342.484375 401.773438 343.070312 401.773438 343.65625 C 401.773438 344.246094 401.746094 344.832031 401.683594 345.417969 C 401.625 346 401.535156 346.582031 401.417969 347.15625 C 401.300781 347.730469 401.152344 348.300781 400.976562 348.859375 C 400.800781 349.421875 400.59375 349.972656 400.363281 350.511719 C 400.128906 351.050781 399.871094 351.578125 399.585938 352.089844 C 399.300781 352.605469 398.988281 353.101562 398.652344 353.582031 C 398.316406 354.066406 397.957031 354.53125 397.574219 354.976562 C 397.191406 355.421875 396.785156 355.84375 396.359375 356.25 C 395.933594 356.652344 395.484375 357.035156 395.019531 357.394531 C 394.554688 357.75 394.074219 358.085938 393.574219 358.394531 C 393.074219 358.707031 392.558594 358.988281 392.03125 359.246094 C 391.503906 359.503906 390.964844 359.734375 390.414062 359.9375 C 389.859375 360.140625 389.300781 360.3125 388.730469 360.460938 C 388.160156 360.605469 387.585938 360.722656 387.003906 360.808594 C 386.425781 360.898438 385.839844 360.953125 385.253906 360.980469 C 384.667969 361.011719 384.078125 361.007812 383.492188 360.976562 L 332.78125 360.976562 C 332.191406 361.007812 331.605469 361.011719 331.019531 360.980469 C 330.433594 360.953125 329.847656 360.898438 329.265625 360.808594 C 328.6875 360.722656 328.109375 360.605469 327.542969 360.460938 C 326.972656 360.3125 326.410156 360.140625 325.859375 359.9375 C 325.308594 359.734375 324.769531 359.503906 324.242188 359.246094 C 323.710938 358.988281 323.199219 358.707031 322.699219 358.394531 C 322.199219 358.085938 321.71875 357.75 321.253906 357.394531 C 320.785156 357.035156 320.339844 356.652344 319.914062 356.25 C 319.488281 355.84375 319.082031 355.417969 318.699219 354.972656 C 318.316406 354.527344 317.957031 354.066406 317.621094 353.582031 C 317.285156 353.101562 316.972656 352.605469 316.6875 352.089844 C 316.402344 351.578125 316.140625 351.050781 315.910156 350.511719 C 315.675781 349.972656 315.472656 349.421875 315.296875 348.859375 C 315.121094 348.300781 314.972656 347.730469 314.855469 347.15625 C 314.734375 346.582031 314.648438 346 314.585938 345.414062 C 314.527344 344.832031 314.5 344.246094 314.5 343.65625 C 314.5 343.070312 314.527344 342.484375 314.585938 341.898438 C 314.648438 341.316406 314.734375 340.734375 314.855469 340.160156 C 314.972656 339.582031 315.121094 339.015625 315.296875 338.453125 C 315.472656 337.894531 315.675781 337.34375 315.910156 336.804688 C 316.140625 336.265625 316.402344 335.738281 316.6875 335.222656 C 316.972656 334.710938 317.285156 334.214844 317.621094 333.730469 C 317.957031 333.25 318.316406 332.785156 318.699219 332.339844 C 319.082031 331.894531 319.488281 331.472656 319.914062 331.066406 C 320.339844 330.664062 320.785156 330.28125 321.253906 329.921875 C 321.71875 329.5625 322.199219 329.230469 322.699219 328.917969 C 323.199219 328.609375 323.710938 328.324219 324.242188 328.070312 C 324.769531 327.8125 325.308594 327.582031 325.859375 327.378906 C 326.410156 327.175781 326.972656 327 327.542969 326.855469 C 328.109375 326.710938 328.6875 326.59375 329.265625 326.507812 C 329.847656 326.417969 330.433594 326.359375 331.019531 326.332031 C 331.605469 326.304688 332.191406 326.308594 332.78125 326.339844 M 520.417969 363.308594 C 514.332031 360.722656 488.316406 363.308594 481.117188 357.070312 C 476.042969 352.355469 475.6875 343.835938 473.710938 332.476562 C 470.363281 313.507812 468.996094 309.199219 465.496094 301.691406 C 452.917969 275.015625 422.644531 252.195312 395.207031 252.195312 L 331.664062 252.195312 C 330.175781 252.195312 328.6875 252.234375 327.199219 252.304688 C 325.714844 252.378906 324.230469 252.488281 322.75 252.632812 C 321.265625 252.777344 319.789062 252.960938 318.316406 253.175781 C 316.84375 253.394531 315.378906 253.648438 313.917969 253.9375 C 312.457031 254.226562 311.003906 254.550781 309.558594 254.914062 C 308.117188 255.273438 306.679688 255.667969 305.257812 256.097656 C 303.832031 256.53125 302.417969 256.996094 301.015625 257.496094 C 299.613281 257.996094 298.222656 258.527344 296.847656 259.097656 C 295.472656 259.664062 294.109375 260.265625 292.765625 260.898438 C 291.417969 261.535156 290.085938 262.199219 288.773438 262.898438 C 287.457031 263.597656 286.164062 264.332031 284.882812 265.09375 C 283.605469 265.855469 282.347656 266.648438 281.105469 267.472656 C 279.867188 268.300781 278.648438 269.152344 277.453125 270.039062 C 276.253906 270.921875 275.078125 271.835938 273.925781 272.777344 C 272.773438 273.71875 271.644531 274.6875 270.539062 275.683594 C 269.429688 276.679688 268.351562 277.703125 267.296875 278.753906 C 266.238281 279.804688 265.210938 280.878906 264.207031 281.976562 C 263.203125 283.078125 262.230469 284.203125 261.28125 285.351562 C 260.332031 286.496094 259.414062 287.667969 258.523438 288.859375 C 257.632812 290.054688 256.769531 291.265625 255.941406 292.503906 C 255.109375 293.738281 254.308594 294.992188 253.539062 296.265625 C 252.769531 297.539062 252.03125 298.832031 251.324219 300.140625 C 250.617188 301.453125 249.941406 302.777344 249.300781 304.121094 C 248.65625 305.464844 248.050781 306.824219 247.472656 308.195312 C 246.898438 309.570312 246.355469 310.957031 245.847656 312.355469 C 245.34375 313.753906 244.867188 315.164062 244.429688 316.585938 C 243.992188 318.011719 243.589844 319.441406 243.21875 320.886719 C 242.851562 322.328125 242.519531 323.777344 242.21875 325.238281 C 241.921875 326.695312 241.660156 328.160156 241.433594 329.632812 C 241.210938 331.101562 241.019531 332.578125 240.867188 334.058594 C 240.710938 335.539062 240.59375 337.023438 240.515625 338.511719 C 240.433594 339.996094 240.386719 341.484375 240.378906 342.972656 L 240.378906 448.761719 C 240.390625 450.246094 240.441406 451.730469 240.523438 453.214844 C 240.609375 454.699219 240.726562 456.183594 240.882812 457.660156 C 241.039062 459.136719 241.234375 460.613281 241.460938 462.082031 C 241.691406 463.550781 241.953125 465.011719 242.253906 466.46875 C 242.554688 467.925781 242.890625 469.371094 243.261719 470.8125 C 243.628906 472.25 244.035156 473.679688 244.476562 475.101562 C 244.917969 476.519531 245.390625 477.929688 245.902344 479.324219 C 246.410156 480.722656 246.953125 482.105469 247.53125 483.472656 C 248.109375 484.84375 248.71875 486.199219 249.359375 487.539062 C 250.003906 488.878906 250.679688 490.203125 251.386719 491.511719 C 252.09375 492.816406 252.832031 494.109375 253.605469 495.378906 C 254.375 496.648438 255.175781 497.902344 256.007812 499.132812 C 256.839844 500.367188 257.703125 501.578125 258.59375 502.765625 C 259.484375 503.957031 260.402344 505.125 261.351562 506.269531 C 262.300781 507.414062 263.273438 508.535156 264.277344 509.632812 C 265.28125 510.730469 266.308594 511.800781 267.367188 512.847656 C 268.421875 513.894531 269.5 514.917969 270.605469 515.910156 C 271.710938 516.90625 272.839844 517.871094 273.992188 518.808594 C 275.144531 519.75 276.320312 520.660156 277.515625 521.542969 C 278.710938 522.421875 279.929688 523.277344 281.167969 524.097656 C 282.40625 524.921875 283.664062 525.710938 284.941406 526.472656 C 286.21875 527.234375 287.515625 527.960938 288.828125 528.660156 C 290.140625 529.359375 291.46875 530.023438 292.8125 530.65625 C 294.160156 531.289062 295.519531 531.886719 296.894531 532.453125 C 298.269531 533.019531 299.65625 533.550781 301.054688 534.050781 C 302.457031 534.546875 303.867188 535.011719 305.292969 535.441406 C 306.714844 535.871094 308.148438 536.265625 309.589844 536.625 C 311.03125 536.984375 312.484375 537.308594 313.941406 537.597656 C 315.398438 537.886719 316.863281 538.140625 318.335938 538.355469 C 319.804688 538.574219 321.28125 538.753906 322.761719 538.898438 C 324.238281 539.042969 325.722656 539.152344 327.207031 539.226562 C 328.691406 539.296875 330.175781 539.335938 331.664062 539.335938 L 436.132812 539.335938 C 437.621094 539.335938 439.105469 539.296875 440.589844 539.226562 C 442.074219 539.152344 443.558594 539.042969 445.035156 538.898438 C 446.515625 538.753906 447.992188 538.574219 449.460938 538.355469 C 450.933594 538.140625 452.398438 537.886719 453.855469 537.597656 C 455.3125 537.308594 456.761719 536.984375 458.207031 536.625 C 459.648438 536.265625 461.082031 535.871094 462.503906 535.441406 C 463.925781 535.011719 465.339844 534.550781 466.738281 534.050781 C 468.140625 533.550781 469.527344 533.019531 470.902344 532.453125 C 472.277344 531.886719 473.636719 531.289062 474.980469 530.65625 C 476.328125 530.023438 477.65625 529.359375 478.96875 528.660156 C 480.28125 527.964844 481.578125 527.234375 482.855469 526.472656 C 484.132812 525.710938 485.390625 524.921875 486.628906 524.097656 C 487.867188 523.277344 489.082031 522.425781 490.28125 521.542969 C 491.476562 520.660156 492.652344 519.75 493.804688 518.8125 C 494.957031 517.871094 496.085938 516.90625 497.191406 515.910156 C 498.296875 514.917969 499.375 513.898438 500.429688 512.847656 C 501.484375 511.800781 502.515625 510.730469 503.519531 509.632812 C 504.519531 508.535156 505.496094 507.414062 506.445312 506.269531 C 507.390625 505.125 508.3125 503.957031 509.203125 502.765625 C 510.09375 501.578125 510.957031 500.367188 511.789062 499.132812 C 512.621094 497.902344 513.421875 496.652344 514.191406 495.378906 C 514.960938 494.109375 515.703125 492.820312 516.410156 491.511719 C 517.117188 490.203125 517.792969 488.882812 518.433594 487.539062 C 519.078125 486.199219 519.6875 484.84375 520.265625 483.476562 C 520.84375 482.105469 521.386719 480.722656 521.894531 479.324219 C 522.402344 477.929688 522.878906 476.519531 523.320312 475.101562 C 523.761719 473.679688 524.164062 472.25 524.535156 470.8125 C 524.90625 469.371094 525.242188 467.925781 525.542969 466.46875 C 525.84375 465.011719 526.105469 463.550781 526.335938 462.082031 C 526.5625 460.613281 526.753906 459.136719 526.914062 457.660156 C 527.070312 456.183594 527.1875 454.699219 527.273438 453.214844 C 527.355469 451.734375 527.40625 450.246094 527.417969 448.761719 L 527.824219 375.277344 C 527.824219 374.027344 527.65625 372.800781 527.320312 371.59375 C 526.988281 370.390625 526.5 369.253906 525.855469 368.179688 C 525.214844 367.109375 524.4375 366.140625 523.53125 365.28125 C 522.628906 364.417969 521.621094 363.695312 520.519531 363.105469 " fill-opacity="1" fill-rule="nonzero"/><path fill="#f9b938" d="M 576.859375 349.449219 L 576.859375 478.960938 C 576.859375 500.5625 559.351562 518.128906 537.640625 518.128906 L 533.695312 518.128906 L 533.695312 552.503906 C 533.695312 559.875 525.199219 563.988281 519.363281 559.53125 L 465.984375 518.128906 L 407.972656 518.128906 C 386.261719 518.128906 368.757812 500.5625 368.757812 478.960938 L 368.757812 349.449219 C 368.757812 327.847656 386.261719 310.195312 407.972656 310.195312 L 537.640625 310.195312 C 559.351562 310.195312 576.859375 327.847656 576.859375 349.449219 Z M 576.859375 349.449219 " fill-opacity="1" fill-rule="nonzero"/><path fill="#ecb021" d="M 576.859375 349.449219 L 576.859375 478.960938 C 576.859375 500.5625 559.351562 518.128906 537.640625 518.128906 L 533.695312 518.128906 L 533.695312 552.503906 C 533.695312 559.875 525.199219 563.988281 519.363281 559.53125 L 509.835938 552.160156 C 515.070312 553.1875 520.5625 549.332031 520.5625 543.417969 L 520.5625 509.046875 L 524.511719 509.046875 C 546.222656 509.046875 563.730469 491.476562 563.730469 469.875 L 563.730469 340.363281 C 563.730469 329.820312 559.523438 320.222656 552.746094 313.191406 C 566.902344 319.191406 576.859375 333.164062 576.859375 349.449219 Z M 576.859375 349.449219 " fill-opacity="1" fill-rule="nonzero"/><path fill="#ffffff" d="M 547.167969 355.105469 L 547.167969 473.304688 C 547.167969 481.617188 540.300781 488.390625 531.976562 488.390625 L 413.636719 488.390625 C 405.226562 488.390625 398.449219 481.617188 398.449219 473.304688 L 398.449219 355.105469 C 398.449219 346.707031 405.3125 339.9375 413.636719 339.9375 L 531.976562 339.9375 C 540.300781 339.9375 547.167969 346.707031 547.167969 355.105469 Z M 547.167969 355.105469 " fill-opacity="1" fill-rule="nonzero"/><path fill="#e5a320" d="M 466.15625 310.195312 L 466.15625 339.9375 L 413.636719 339.9375 C 405.3125 339.9375 398.449219 346.707031 398.449219 355.105469 L 398.449219 443.046875 L 368.757812 443.046875 L 368.757812 349.449219 C 368.757812 327.847656 386.261719 310.195312 407.972656 310.195312 Z M 466.15625 310.195312 " fill-opacity="1" fill-rule="nonzero"/><path fill="#e4e3ff" d="M 466.15625 339.9375 L 466.15625 385.019531 C 466.15625 416.992188 440.070312 443.046875 407.972656 443.046875 L 398.449219 443.046875 L 398.449219 355.105469 C 398.449219 346.707031 405.3125 339.9375 413.636719 339.9375 Z M 466.15625 339.9375 " fill-opacity="1" fill-rule="nonzero"/><g clip-path="url(#c5e7fe0b9b)"><path fill="#5e5eef" d="M 453.285156 235.449219 L 453.285156 385.019531 C 453.285156 409.960938 433.03125 430.191406 407.972656 430.191406 L 341.039062 430.191406 L 279.371094 477.988281 C 272.648438 483.203125 262.859375 478.414062 262.859375 469.910156 L 262.859375 430.191406 L 258.3125 430.191406 C 233.253906 430.191406 213 409.960938 213 385.019531 L 213 235.449219 C 213 210.507812 233.253906 190.195312 258.3125 190.195312 L 407.972656 190.195312 C 433.03125 190.195312 453.285156 210.507812 453.285156 235.449219 Z M 453.285156 235.449219 " fill-opacity="1" fill-rule="nonzero"/></g><path fill="#4242e5" d="M 453.285156 235.449219 L 453.285156 385.019531 C 453.285156 409.960938 433.03125 430.191406 407.972656 430.191406 L 341.039062 430.191406 L 279.335938 478.019531 C 272.644531 483.160156 262.859375 478.445312 262.859375 469.875 L 262.859375 468.675781 C 264.574219 468.589844 266.292969 467.902344 267.835938 466.703125 L 326.011719 421.609375 C 328.296875 419.839844 331.109375 418.875 334 418.875 L 396.472656 418.875 C 421.53125 418.875 441.785156 398.648438 441.785156 373.707031 L 441.785156 224.136719 C 441.785156 214.367188 438.695312 205.367188 433.460938 197.996094 C 445.476562 206.222656 453.285156 219.9375 453.285156 235.449219 Z M 453.285156 235.449219 " fill-opacity="1" fill-rule="nonzero"/><path fill="#ffffff" d="M 264.847656 395.945312 C 255.171875 395.945312 247.328125 388.109375 247.328125 378.445312 L 247.328125 242.015625 C 247.328125 232.351562 255.171875 224.519531 264.847656 224.519531 L 401.4375 224.519531 C 411.113281 224.519531 418.960938 232.355469 418.960938 242.019531 L 418.960938 378.445312 C 418.960938 388.109375 411.117188 395.945312 401.441406 395.945312 Z M 264.847656 395.945312 " fill-opacity="1" fill-rule="nonzero"/><path fill="#e4e3ff" d="M 418.957031 319.964844 L 418.957031 378.421875 C 418.957031 388.105469 411.148438 395.90625 401.453125 395.90625 L 264.832031 395.90625 C 255.136719 395.90625 247.328125 388.105469 247.328125 378.421875 L 247.328125 365.050781 C 264.832031 372.417969 284.65625 376.621094 305.765625 376.621094 C 355.28125 376.621094 398.191406 353.5625 418.957031 319.964844 Z M 418.957031 319.964844 " fill-opacity="1" fill-rule="nonzero"/><path fill="#e4e3ff" d="M 547.167969 419.476562 L 547.167969 473.304688 C 547.167969 481.617188 540.300781 488.390625 531.976562 488.390625 L 413.636719 488.390625 C 405.226562 488.390625 398.449219 481.617188 398.449219 473.304688 L 398.449219 463.789062 C 411.0625 467.21875 424.621094 469.105469 438.78125 469.105469 C 484.777344 469.105469 525.027344 449.21875 547.167969 419.476562 Z M 547.167969 419.476562 " fill-opacity="1" fill-rule="nonzero"/><g mask="url(#8812073e1a)"><g transform="matrix(1, 0, 0, 1, 220, 279)"><g clip-path="url(#9dbcf36bba)"><path fill="#ffffff" d="M 9.695312 95.441406 C 6.652344 95.441406 4.183594 92.976562 4.183594 89.9375 L 4.183594 38.535156 C 4.183594 35.5 6.652344 33.035156 9.695312 33.035156 C 12.734375 33.035156 15.203125 35.5 15.203125 38.535156 L 15.203125 89.9375 C 15.203125 92.976562 12.734375 95.441406 9.695312 95.441406 Z M 9.695312 95.441406 " fill-opacity="0.4" fill-rule="nonzero"/><path fill="#ffffff" d="M 9.695312 23.757812 C 6.652344 23.757812 4.183594 21.292969 4.183594 18.257812 L 4.183594 10.984375 C 4.183594 7.949219 6.652344 5.484375 9.695312 5.484375 C 12.734375 5.484375 15.203125 7.949219 15.203125 10.984375 L 15.203125 18.257812 C 15.203125 21.292969 12.734375 23.757812 9.695312 23.757812 Z M 9.695312 23.757812 " fill-opacity="0.4" fill-rule="nonzero"/></g></g></g><g mask="url(#b4c355b568)"><g transform="matrix(1, 0, 0, 1, 313, 201)"><g clip-path="url(#378f7a3f0f)"><path fill="#ffffff" d="M 94.039062 7.222656 C 94.039062 10.257812 91.570312 12.722656 88.53125 12.722656 L 37.066406 12.722656 C 34.023438 12.722656 31.558594 10.257812 31.558594 7.222656 C 31.558594 4.183594 34.023438 1.71875 37.066406 1.71875 L 88.53125 1.71875 C 91.570312 1.71875 94.039062 4.183594 94.039062 7.222656 Z M 94.039062 7.222656 " fill-opacity="0.4" fill-rule="nonzero"/><path fill="#ffffff" d="M 22.269531 7.222656 C 22.269531 10.257812 19.800781 12.722656 16.761719 12.722656 L 9.480469 12.722656 C 6.441406 12.722656 3.972656 10.257812 3.972656 7.222656 C 3.972656 4.183594 6.441406 1.71875 9.480469 1.71875 L 16.761719 1.71875 C 19.800781 1.71875 22.269531 4.183594 22.269531 7.222656 Z M 22.269531 7.222656 " fill-opacity="0.4" fill-rule="nonzero"/></g></g></g><g mask="url(#4cd05f2704)"><g transform="matrix(1, 0, 0, 1, 398, 495)"><g clip-path="url(#0a34c91995)"><path fill="#ffffff" d="M 60.574219 8.796875 C 60.574219 11.441406 58.425781 13.589844 55.773438 13.589844 L 32.566406 13.589844 C 29.917969 13.589844 27.769531 11.441406 27.769531 8.796875 C 27.769531 6.148438 29.917969 4.003906 32.566406 4.003906 L 55.773438 4.003906 C 58.425781 4.003906 60.574219 6.148438 60.574219 8.796875 Z M 60.574219 8.796875 " fill-opacity="0.4" fill-rule="nonzero"/><path fill="#ffffff" d="M 19.675781 8.796875 C 19.675781 11.441406 17.527344 13.589844 14.878906 13.589844 L 12.828125 13.589844 C 10.179688 13.589844 8.03125 11.441406 8.03125 8.796875 C 8.03125 6.148438 10.179688 4.003906 12.828125 4.003906 L 14.878906 4.003906 C 17.527344 4.003906 19.675781 6.148438 19.675781 8.796875 Z M 19.675781 8.796875 " fill-opacity="0.4" fill-rule="nonzero"/></g></g></g><g mask="url(#3289b1c023)"><g transform="matrix(1, 0, 0, 1, 476, 317)"><g clip-path="url(#237faac6e0)"><path fill="#ffffff" d="M 55.816406 6.800781 C 55.816406 9.445312 53.667969 11.59375 51.019531 11.59375 L 27.8125 11.59375 C 25.160156 11.59375 23.011719 9.445312 23.011719 6.800781 C 23.011719 4.152344 25.160156 2.003906 27.8125 2.003906 L 51.019531 2.003906 C 53.667969 2.003906 55.816406 4.152344 55.816406 6.800781 Z M 55.816406 6.800781 " fill-opacity="0.4" fill-rule="nonzero"/><path fill="#ffffff" d="M 14.917969 6.800781 C 14.917969 9.445312 12.769531 11.59375 10.121094 11.59375 L 8.074219 11.59375 C 5.421875 11.59375 3.273438 9.445312 3.273438 6.800781 C 3.273438 4.152344 5.421875 2.003906 8.074219 2.003906 L 10.121094 2.003906 C 12.769531 2.003906 14.917969 4.152344 14.917969 6.800781 Z M 14.917969 6.800781 " fill-opacity="0.4" fill-rule="nonzero"/></g></g></g><path fill="#474646" d="M 377.5625 288.851562 L 288.714844 288.851562 C 285.511719 288.851562 282.910156 286.253906 282.910156 283.054688 C 282.910156 279.851562 285.511719 277.253906 288.714844 277.253906 L 377.5625 277.253906 C 380.769531 277.253906 383.371094 279.851562 383.371094 283.054688 C 383.371094 286.253906 380.769531 288.851562 377.5625 288.851562 Z M 377.5625 288.851562 " fill-opacity="1" fill-rule="nonzero"/><path fill="#474646" d="M 370.476562 349.378906 C 333.890625 349.378906 304.125 319.625 304.125 283.054688 C 304.125 279.851562 306.726562 277.253906 309.933594 277.253906 C 313.136719 277.253906 315.738281 279.851562 315.738281 283.054688 C 315.738281 313.230469 340.296875 337.78125 370.476562 337.78125 C 373.683594 337.78125 376.285156 340.378906 376.285156 343.578125 C 376.285156 346.78125 373.683594 349.378906 370.476562 349.378906 Z M 370.476562 349.378906 " fill-opacity="1" fill-rule="nonzero"/><path fill="#474646" d="M 295.808594 349.378906 C 292.601562 349.378906 290 346.78125 290 343.578125 C 290 340.378906 292.601562 337.78125 295.808594 337.78125 C 325.992188 337.78125 350.546875 313.230469 350.546875 283.054688 C 350.546875 279.851562 353.148438 277.253906 356.355469 277.253906 C 359.5625 277.253906 362.160156 279.851562 362.160156 283.054688 C 362.160156 319.625 332.394531 349.378906 295.808594 349.378906 Z M 295.808594 349.378906 " fill-opacity="1" fill-rule="nonzero"/><path fill="#474646" d="M 333.144531 288.851562 C 329.9375 288.851562 327.335938 286.253906 327.335938 283.054688 C 327.335938 268.214844 339.402344 256.136719 354.238281 256.136719 C 357.445312 256.136719 360.042969 258.738281 360.042969 261.9375 C 360.042969 265.140625 357.445312 267.738281 354.238281 267.738281 C 345.808594 267.738281 338.949219 274.609375 338.949219 283.054688 C 338.949219 286.253906 336.347656 288.851562 333.144531 288.851562 Z M 333.144531 288.851562 " fill-opacity="1" fill-rule="nonzero"/><path fill="#474646" d="M 517.808594 445.390625 C 517.808594 446.667969 517.386719 447.746094 516.546875 448.621094 C 515.699219 449.496094 514.605469 449.933594 513.253906 449.933594 C 512.3125 449.933594 511.453125 449.683594 510.675781 449.179688 C 509.902344 448.671875 509.308594 447.984375 508.902344 447.105469 L 502.328125 431.339844 L 467.929688 431.339844 L 461.355469 447.105469 C 460.949219 447.984375 460.355469 448.671875 459.582031 449.179688 C 458.804688 449.683594 457.945312 449.933594 457.003906 449.933594 C 455.652344 449.933594 454.558594 449.496094 453.710938 448.621094 C 452.871094 447.746094 452.449219 446.667969 452.449219 445.390625 C 452.449219 444.851562 452.617188 444.175781 452.957031 443.367188 L 478.753906 382.53125 C 479.292969 381.320312 480.054688 380.328125 481.03125 379.550781 C 482.007812 378.777344 483.203125 378.394531 484.621094 378.394531 L 485.636719 378.394531 C 487.054688 378.394531 488.25 378.777344 489.226562 379.550781 C 490.203125 380.328125 490.960938 381.320312 491.503906 382.53125 L 517.300781 443.367188 C 517.636719 444.175781 517.808594 444.851562 517.808594 445.390625 Z M 485.132812 390.113281 L 471.472656 422.953125 L 498.785156 422.953125 Z M 485.132812 390.113281 " fill-opacity="1" fill-rule="nonzero"/><path fill="#474646" d="M 513.253906 451.09375 C 512.089844 451.09375 511.015625 450.777344 510.050781 450.15625 C 509.082031 449.523438 508.339844 448.660156 507.847656 447.597656 L 501.558594 432.507812 L 468.699219 432.507812 L 462.433594 447.550781 C 461.917969 448.660156 461.175781 449.523438 460.222656 450.148438 C 457.820312 451.675781 454.675781 451.296875 452.875 449.429688 C 451.816406 448.320312 451.28125 446.960938 451.28125 445.390625 C 451.28125 444.695312 451.484375 443.878906 451.886719 442.914062 L 477.691406 382.078125 C 478.300781 380.6875 479.179688 379.539062 480.3125 378.648438 C 481.484375 377.714844 482.9375 377.230469 484.621094 377.230469 L 485.636719 377.230469 C 487.320312 377.230469 488.773438 377.714844 489.953125 378.648438 C 491.066406 379.527344 491.941406 380.671875 492.5625 382.054688 L 518.367188 442.914062 C 518.765625 443.859375 518.972656 444.6875 518.972656 445.390625 C 518.972656 446.96875 518.433594 448.328125 517.382812 449.421875 C 516.300781 450.535156 514.917969 451.09375 513.253906 451.09375 Z M 467.15625 430.183594 L 503.101562 430.183594 L 509.972656 446.660156 C 510.269531 447.292969 510.714844 447.816406 511.320312 448.214844 C 512.71875 449.113281 514.648438 448.910156 515.710938 447.816406 C 516.339844 447.160156 516.644531 446.367188 516.644531 445.390625 C 516.644531 445.125 516.574219 444.636719 516.226562 443.820312 L 490.4375 382.984375 C 489.976562 381.949219 489.339844 381.117188 488.507812 380.460938 C 487.738281 379.851562 486.800781 379.554688 485.636719 379.554688 L 484.621094 379.554688 C 483.457031 379.554688 482.519531 379.851562 481.757812 380.460938 C 480.917969 381.117188 480.269531 381.972656 479.820312 383 L 454.023438 443.820312 C 453.675781 444.652344 453.609375 445.132812 453.609375 445.390625 C 453.609375 446.359375 453.917969 447.160156 454.554688 447.824219 C 455.597656 448.910156 457.523438 449.128906 458.953125 448.207031 C 459.542969 447.816406 459.988281 447.292969 460.308594 446.613281 Z M 500.523438 424.117188 L 469.734375 424.117188 L 485.128906 387.085938 Z M 473.214844 421.792969 L 497.046875 421.792969 L 485.128906 393.140625 Z M 473.214844 421.792969 " fill-opacity="1" fill-rule="nonzero"/><g clip-path="url(#8bb466873c)"><path fill="#ffffff" d="M 268.804688 237.277344 L 384.296875 237.277344 L 384.296875 352.777344 L 268.804688 352.777344 L 268.804688 237.277344 " fill-opacity="1" fill-rule="nonzero"/></g><g clip-path="url(#053d596c97)"><path fill="#ffffff" d="M 500.851562 364.464844 C 482.835938 364.464844 468.226562 375.710938 468.226562 389.585938 C 468.226562 403.460938 482.835938 414.707031 500.851562 414.707031 C 518.871094 414.707031 533.476562 403.460938 533.476562 389.585938 C 533.476562 375.710938 518.871094 364.464844 500.851562 364.464844 " fill-opacity="1" fill-rule="nonzero"/></g><g clip-path="url(#fe9b8ace54)"><path fill="#ffffff" d="M 498.078125 384.003906 C 480.0625 384.003906 465.453125 395.25 465.453125 409.125 C 465.453125 423 480.0625 434.246094 498.078125 434.246094 C 516.097656 434.246094 530.703125 423 530.703125 409.125 C 530.703125 395.25 516.097656 384.003906 498.078125 384.003906 " fill-opacity="1" fill-rule="nonzero"/></g><g clip-path="url(#664458465b)"><path fill="#ffffff" d="M 489.363281 402.625 C 471.34375 402.625 456.738281 413.871094 456.738281 427.746094 C 456.738281 441.621094 471.34375 452.867188 489.363281 452.867188 C 507.382812 452.867188 521.988281 441.621094 521.988281 427.746094 C 521.988281 413.871094 507.382812 402.625 489.363281 402.625 " fill-opacity="1" fill-rule="nonzero"/></g><g clip-path="url(#2a004ddb5e)"><path fill="#ffffff" d="M 479.082031 414.738281 C 461.476562 414.738281 447.207031 425.648438 447.207031 439.109375 C 447.207031 452.570312 461.476562 463.480469 479.082031 463.480469 C 496.683594 463.480469 510.957031 452.570312 510.957031 439.109375 C 510.957031 425.648438 496.683594 414.738281 479.082031 414.738281 " fill-opacity="1" fill-rule="nonzero"/></g><g clip-path="url(#30a17ac03d)"><path fill="#ffffff" d="M 497.328125 404.125 C 479.726562 404.125 465.453125 415.035156 465.453125 428.496094 C 465.453125 441.957031 479.726562 452.867188 497.328125 452.867188 C 514.933594 452.867188 529.203125 441.957031 529.203125 428.496094 C 529.203125 415.035156 514.933594 404.125 497.328125 404.125 " fill-opacity="1" fill-rule="nonzero"/></g><g clip-path="url(#889cb41467)"><g clip-path="url(#e9bbd209c3)"><path fill="#e4e3ff" d="M 518.320312 448.40625 C 507.238281 453.550781 500.800781 463.203125 503.941406 469.964844 C 507.078125 476.726562 518.609375 478.035156 529.691406 472.890625 C 540.773438 467.742188 547.210938 458.089844 544.074219 451.328125 C 540.933594 444.566406 529.402344 443.257812 518.320312 448.40625 " fill-opacity="1" fill-rule="nonzero"/></g></g><g fill="#ff2648" fill-opacity="1"><g transform="translate(465.454588, 462.299065)"><g><path d="M 41.1875 -9.421875 L 29.15625 -17.890625 C 28.0625 -15.898438 26.84375 -14.117188 25.5 -12.546875 C 24.15625 -10.984375 22.804688 -9.609375 21.453125 -8.421875 C 20.109375 -7.234375 18.796875 -6.238281 17.515625 -5.4375 C 16.234375 -4.632812 15.140625 -4.007812 14.234375 -3.5625 L 11.828125 -2.40625 L 0 -12.21875 L 0.484375 -12.515625 C 3.304688 -14.179688 5.867188 -15.816406 8.171875 -17.421875 C 10.484375 -19.023438 12.441406 -20.753906 14.046875 -22.609375 C 15.648438 -24.472656 16.882812 -26.539062 17.75 -28.8125 C 18.613281 -31.09375 19.046875 -33.773438 19.046875 -36.859375 C 19.046875 -39.804688 18.421875 -42.335938 17.171875 -44.453125 C 15.921875 -46.566406 14.175781 -48.910156 11.9375 -51.484375 L -0.96875 -51.484375 L -0.96875 -59.84375 L 59.46875 -59.84375 L 59.46875 -51.484375 L 54.65625 -51.484375 L 54.65625 0 L 41.1875 0 Z M 32.71875 -40.984375 C 32.84375 -39.898438 32.9375 -38.8125 33 -37.71875 C 33.0625 -36.625 33.09375 -35.566406 33.09375 -34.546875 L 33.09375 -33 C 33.09375 -32.164062 33.0625 -31.6875 33 -31.5625 L 41.1875 -25.890625 L 41.1875 -51.484375 L 28.671875 -51.484375 L 28.96875 -51.1875 C 30.882812 -48.175781 32.132812 -44.773438 32.71875 -40.984375 Z M 32.71875 -40.984375 "/></g></g></g><g fill="#444344" fill-opacity="1"><g transform="translate(283.668838, 334.730628)"><g><path d="M 46.011719 -78.074219 C 45.742188 -79.144531 44.671875 -79.953125 43.464844 -79.953125 L 37.828125 -79.953125 C 33.269531 -79.953125 29.242188 -77 27.769531 -72.707031 L 7.242188 -10.730469 C 5.5 -5.5 9.390625 -0.132812 14.890625 -0.132812 L 17.839844 -0.132812 C 18.644531 -0.132812 19.453125 -0.671875 19.71875 -1.609375 L 25.21875 -19.71875 L 50.4375 -19.71875 L 54.597656 -5.902344 C 55.671875 -2.414062 58.757812 -0.132812 62.242188 -0.132812 L 69.085938 -0.132812 C 70.425781 -0.132812 71.367188 -1.476562 70.964844 -2.816406 Z M 29.242188 -33.132812 L 37.828125 -61.4375 L 46.414062 -33.132812 Z M 29.242188 -33.132812 "/></g></g></g></svg>