<svg width="34" height="34" viewBox="0 0 34 34" fill="none" xmlns="http://www.w3.org/2000/svg">
<path d="M3.66671 34C2.75004 34 1.9656 33.6738 1.31337 33.0216C0.660041 32.3683 0.333374 31.5833 0.333374 30.6666V10.6666C0.333374 9.74996 0.660041 8.96551 1.31337 8.31329C1.9656 7.65996 2.75004 7.33329 3.66671 7.33329H8.91671L12 3.99996H22V7.33329H13.4584L10.4167 10.6666H3.66671V30.6666H30.3334V12.3333H33.6667V30.6666C33.6667 31.5833 33.3406 32.3683 32.6884 33.0216C32.035 33.6738 31.25 34 30.3334 34H3.66671ZM31.4167 10.6666C31.4167 8.49996 30.6667 6.66663 29.1667 5.16663C27.6667 3.66663 25.8334 2.91663 23.6667 2.91663V0.666626C26.4445 0.666626 28.8056 1.63885 30.75 3.58329C32.6945 5.52774 33.6667 7.88885 33.6667 10.6666H31.4167ZM27 10.6666C27 9.74996 26.6739 8.96551 26.0217 8.31329C25.3684 7.65996 24.5834 7.33329 23.6667 7.33329V5.08329C25.1945 5.08329 26.4928 5.62496 27.5617 6.70829C28.6317 7.79163 29.1945 9.11107 29.25 10.6666H27ZM17 28.1666C19.0834 28.1666 20.8545 27.4377 22.3134 25.98C23.7712 24.5211 24.5 22.75 24.5 20.6666C24.5 18.5833 23.7712 16.8122 22.3134 15.3533C20.8545 13.8955 19.0834 13.1666 17 13.1666C14.9167 13.1666 13.1456 13.8955 11.6867 15.3533C10.2289 16.8122 9.50004 18.5833 9.50004 20.6666C9.50004 22.75 10.2289 24.5211 11.6867 25.98C13.1456 27.4377 14.9167 28.1666 17 28.1666ZM17 24.8333C15.8334 24.8333 14.8473 24.4305 14.0417 23.625C13.2362 22.8194 12.8334 21.8333 12.8334 20.6666C12.8334 19.5 13.2362 18.5138 14.0417 17.7083C14.8473 16.9027 15.8334 16.5 17 16.5C18.1667 16.5 19.1528 16.9027 19.9584 17.7083C20.7639 18.5138 21.1667 19.5 21.1667 20.6666C21.1667 21.8333 20.7639 22.8194 19.9584 23.625C19.1528 24.4305 18.1667 24.8333 17 24.8333Z" fill="#E22987"/>
</svg>
