<svg xmlns="http://www.w3.org/2000/svg" xmlns:xlink="http://www.w3.org/1999/xlink" width="1024" zoomAndPan="magnify" viewBox="0 0 768 767.999994" height="1024" preserveAspectRatio="xMidYMid meet" version="1.0"><defs><clipPath id="5d67fb8a48"><path d="M 503 445 L 545 445 L 545 477 L 503 477 Z M 503 445 " clip-rule="nonzero"/></clipPath><clipPath id="8d28ca8347"><path d="M 498.253906 457.722656 L 538.386719 439.082031 L 549.757812 463.574219 L 509.625 482.210938 Z M 498.253906 457.722656 " clip-rule="nonzero"/></clipPath><clipPath id="6861c74f7a"><path d="M 225 453 L 556 453 L 556 586.777344 L 225 586.777344 Z M 225 453 " clip-rule="nonzero"/></clipPath><clipPath id="e0823d51a2"><path d="M 200 345 L 580.371094 345 L 580.371094 359 L 200 359 Z M 200 345 " clip-rule="nonzero"/></clipPath><clipPath id="d2dbc8e7a7"><path d="M 200 453 L 580.371094 453 L 580.371094 467 L 200 467 Z M 200 453 " clip-rule="nonzero"/></clipPath><clipPath id="10ede3d670"><path d="M 187.371094 181.027344 L 239 181.027344 L 239 239 L 187.371094 239 Z M 187.371094 181.027344 " clip-rule="nonzero"/></clipPath><clipPath id="022a396bfc"><path d="M 206 181.027344 L 556 181.027344 L 556 359 L 206 359 Z M 206 181.027344 " clip-rule="nonzero"/></clipPath></defs><rect x="-76.8" width="921.6" fill="#ffffff" y="-76.799999" height="921.599993" fill-opacity="1"/><rect x="-76.8" width="921.6" fill="#ffffff" y="-76.799999" height="921.599993" fill-opacity="1"/><rect x="-76.8" width="921.6" fill="#ffffff" y="-76.799999" height="921.599993" fill-opacity="1"/><path fill="#e8e8e8" d="M 711.808594 383.847656 C 711.808594 389.207031 711.679688 394.566406 711.414062 399.921875 C 711.152344 405.273438 710.757812 410.617188 710.230469 415.953125 C 709.707031 421.289062 709.050781 426.609375 708.265625 431.910156 C 707.476562 437.214844 706.5625 442.492188 705.515625 447.75 C 704.46875 453.007812 703.296875 458.238281 701.992188 463.4375 C 700.691406 468.636719 699.261719 473.800781 697.707031 478.933594 C 696.148438 484.0625 694.46875 489.152344 692.660156 494.199219 C 690.855469 499.246094 688.925781 504.246094 686.875 509.199219 C 684.824219 514.152344 682.652344 519.050781 680.359375 523.894531 C 678.070312 528.742188 675.660156 533.527344 673.132812 538.257812 C 670.605469 542.984375 667.964844 547.648438 665.207031 552.246094 C 662.453125 556.84375 659.585938 561.371094 656.605469 565.828125 C 653.628906 570.285156 650.542969 574.667969 647.347656 578.972656 C 644.15625 583.277344 640.859375 587.503906 637.457031 591.648438 C 634.058594 595.792969 630.554688 599.847656 626.957031 603.820312 C 623.355469 607.792969 619.660156 611.675781 615.871094 615.464844 C 612.082031 619.253906 608.199219 622.949219 604.226562 626.550781 C 600.253906 630.152344 596.195312 633.652344 592.054688 637.050781 C 587.910156 640.453125 583.683594 643.75 579.378906 646.941406 C 575.074219 650.136719 570.691406 653.222656 566.234375 656.199219 C 561.777344 659.179688 557.25 662.046875 552.652344 664.800781 C 548.054688 667.558594 543.390625 670.199219 538.664062 672.726562 C 533.933594 675.253906 529.148438 677.664062 524.300781 679.953125 C 519.457031 682.246094 514.554688 684.417969 509.605469 686.46875 C 504.652344 688.523438 499.652344 690.449219 494.605469 692.257812 C 489.554688 694.0625 484.46875 695.742188 479.339844 697.300781 C 474.207031 698.855469 469.042969 700.285156 463.84375 701.585938 C 458.644531 702.890625 453.414062 704.0625 448.15625 705.109375 C 442.898438 706.15625 437.617188 707.070312 432.316406 707.859375 C 427.011719 708.644531 421.695312 709.300781 416.359375 709.828125 C 411.023438 710.351562 405.679688 710.746094 400.324219 711.007812 C 394.972656 711.273438 389.613281 711.402344 384.253906 711.402344 C 378.894531 711.402344 373.535156 711.273438 368.179688 711.007812 C 362.828125 710.746094 357.480469 710.351562 352.148438 709.828125 C 346.8125 709.300781 341.492188 708.644531 336.191406 707.859375 C 330.886719 707.070312 325.609375 706.15625 320.351562 705.109375 C 315.09375 704.0625 309.863281 702.890625 304.664062 701.585938 C 299.464844 700.285156 294.296875 698.855469 289.167969 697.300781 C 284.039062 695.742188 278.949219 694.0625 273.902344 692.257812 C 268.855469 690.449219 263.855469 688.523438 258.902344 686.46875 C 253.949219 684.417969 249.050781 682.246094 244.207031 679.953125 C 239.359375 677.664062 234.570312 675.253906 229.84375 672.726562 C 225.117188 670.199219 220.453125 667.558594 215.855469 664.800781 C 211.257812 662.046875 206.730469 659.179688 202.273438 656.199219 C 197.816406 653.222656 193.433594 650.136719 189.128906 646.945312 C 184.824219 643.75 180.597656 640.453125 176.453125 637.050781 C 172.308594 633.652344 168.253906 630.152344 164.28125 626.550781 C 160.308594 622.949219 156.425781 619.253906 152.636719 615.464844 C 148.84375 611.675781 145.148438 607.792969 141.550781 603.820312 C 137.949219 599.847656 134.449219 595.792969 131.050781 591.648438 C 127.648438 587.503906 124.351562 583.277344 121.15625 578.972656 C 117.964844 574.667969 114.878906 570.285156 111.902344 565.828125 C 108.921875 561.371094 106.054688 556.84375 103.300781 552.246094 C 100.542969 547.648438 97.902344 542.984375 95.375 538.257812 C 92.847656 533.527344 90.4375 528.742188 88.144531 523.894531 C 85.855469 519.050781 83.683594 514.152344 81.632812 509.199219 C 79.578125 504.246094 77.652344 499.246094 75.84375 494.199219 C 74.039062 489.152344 72.359375 484.0625 70.800781 478.933594 C 69.246094 473.800781 67.816406 468.636719 66.515625 463.4375 C 65.210938 458.238281 64.035156 453.007812 62.992188 447.75 C 61.945312 442.492188 61.027344 437.214844 60.242188 431.910156 C 59.457031 426.609375 58.800781 421.289062 58.273438 415.953125 C 57.75 410.617188 57.355469 405.273438 57.09375 399.921875 C 56.828125 394.566406 56.699219 389.207031 56.699219 383.847656 C 56.699219 378.488281 56.828125 373.128906 57.09375 367.777344 C 57.355469 362.421875 57.75 357.078125 58.273438 351.742188 C 58.800781 346.40625 59.457031 341.089844 60.242188 335.785156 C 61.027344 330.484375 61.945312 325.203125 62.992188 319.945312 C 64.035156 314.6875 65.210938 309.457031 66.515625 304.257812 C 67.816406 299.058594 69.246094 293.894531 70.800781 288.761719 C 72.359375 283.632812 74.039062 278.542969 75.84375 273.496094 C 77.652344 268.449219 79.578125 263.449219 81.632812 258.496094 C 83.683594 253.542969 85.855469 248.644531 88.144531 243.800781 C 90.4375 238.953125 92.847656 234.167969 95.375 229.4375 C 97.902344 224.710938 100.542969 220.046875 103.300781 215.449219 C 106.054688 210.851562 108.921875 206.324219 111.902344 201.867188 C 114.878906 197.410156 117.964844 193.027344 121.15625 188.722656 C 124.351562 184.417969 127.648438 180.191406 131.050781 176.046875 C 134.449219 171.90625 137.949219 167.847656 141.550781 163.875 C 145.148438 159.902344 148.84375 156.019531 152.636719 152.230469 C 156.425781 148.441406 160.308594 144.746094 164.28125 141.144531 C 168.253906 137.542969 172.308594 134.042969 176.453125 130.644531 C 180.597656 127.242188 184.824219 123.945312 189.128906 120.753906 C 193.433594 117.558594 197.816406 114.472656 202.273438 111.496094 C 206.730469 108.515625 211.257812 105.648438 215.855469 102.894531 C 220.453125 100.136719 225.117188 97.496094 229.84375 94.96875 C 234.574219 92.441406 239.359375 90.03125 244.207031 87.742188 C 249.050781 85.449219 253.949219 83.277344 258.902344 81.226562 C 263.855469 79.175781 268.855469 77.246094 273.902344 75.4375 C 278.949219 73.632812 284.039062 71.953125 289.167969 70.394531 C 294.296875 68.839844 299.464844 67.410156 304.664062 66.109375 C 309.863281 64.804688 315.09375 63.632812 320.351562 62.585938 C 325.609375 61.539062 330.886719 60.625 336.191406 59.835938 C 341.492188 59.050781 346.8125 58.394531 352.148438 57.867188 C 357.480469 57.34375 362.828125 56.949219 368.179688 56.6875 C 373.535156 56.421875 378.894531 56.292969 384.253906 56.292969 C 389.613281 56.292969 394.972656 56.421875 400.324219 56.6875 C 405.679688 56.949219 411.023438 57.34375 416.359375 57.867188 C 421.695312 58.394531 427.011719 59.050781 432.316406 59.835938 C 437.617188 60.625 442.898438 61.539062 448.15625 62.585938 C 453.414062 63.632812 458.644531 64.804688 463.84375 66.109375 C 469.042969 67.410156 474.207031 68.839844 479.339844 70.394531 C 484.46875 71.953125 489.554688 73.632812 494.605469 75.4375 C 499.652344 77.246094 504.652344 79.175781 509.605469 81.226562 C 514.554688 83.277344 519.457031 85.449219 524.300781 87.742188 C 529.148438 90.03125 533.933594 92.441406 538.664062 94.96875 C 543.390625 97.496094 548.054688 100.136719 552.652344 102.894531 C 557.25 105.648438 561.777344 108.515625 566.234375 111.496094 C 570.691406 114.472656 575.074219 117.558594 579.378906 120.753906 C 583.683594 123.945312 587.910156 127.242188 592.054688 130.644531 C 596.195312 134.042969 600.253906 137.542969 604.226562 141.144531 C 608.199219 144.746094 612.082031 148.441406 615.871094 152.230469 C 619.660156 156.019531 623.355469 159.902344 626.957031 163.875 C 630.554688 167.847656 634.058594 171.90625 637.457031 176.046875 C 640.859375 180.191406 644.15625 184.417969 647.347656 188.722656 C 650.542969 193.027344 653.628906 197.410156 656.605469 201.867188 C 659.585938 206.324219 662.453125 210.851562 665.207031 215.449219 C 667.964844 220.046875 670.605469 224.710938 673.132812 229.4375 C 675.660156 234.167969 678.070312 238.953125 680.359375 243.800781 C 682.652344 248.644531 684.824219 253.542969 686.875 258.496094 C 688.925781 263.449219 690.855469 268.449219 692.660156 273.496094 C 694.46875 278.542969 696.148438 283.632812 697.707031 288.761719 C 699.261719 293.894531 700.691406 299.058594 701.992188 304.257812 C 703.296875 309.457031 704.46875 314.6875 705.515625 319.945312 C 706.5625 325.203125 707.476562 330.484375 708.265625 335.785156 C 709.050781 341.089844 709.707031 346.40625 710.230469 351.742188 C 710.757812 357.078125 711.152344 362.421875 711.414062 367.777344 C 711.679688 373.128906 711.808594 378.488281 711.808594 383.847656 Z M 711.808594 383.847656 " fill-opacity="1" fill-rule="nonzero"/><path fill="#e8e8e8" d="M 711.808594 383.847656 C 711.808594 389.207031 711.679688 394.566406 711.414062 399.921875 C 711.152344 405.273438 710.757812 410.617188 710.230469 415.953125 C 709.707031 421.289062 709.050781 426.609375 708.265625 431.910156 C 707.476562 437.214844 706.5625 442.492188 705.515625 447.75 C 704.46875 453.007812 703.296875 458.238281 701.992188 463.4375 C 700.691406 468.636719 699.261719 473.800781 697.707031 478.933594 C 696.148438 484.0625 694.46875 489.152344 692.660156 494.199219 C 690.855469 499.246094 688.925781 504.246094 686.875 509.199219 C 684.824219 514.152344 682.652344 519.050781 680.359375 523.894531 C 678.070312 528.742188 675.660156 533.527344 673.132812 538.257812 C 670.605469 542.984375 667.964844 547.648438 665.207031 552.246094 C 662.453125 556.84375 659.585938 561.371094 656.605469 565.828125 C 653.628906 570.285156 650.542969 574.667969 647.347656 578.972656 C 644.15625 583.277344 640.859375 587.503906 637.457031 591.648438 C 634.058594 595.792969 630.554688 599.847656 626.957031 603.820312 C 623.355469 607.792969 619.660156 611.675781 615.871094 615.464844 C 612.082031 619.253906 608.199219 622.949219 604.226562 626.550781 C 600.253906 630.152344 596.195312 633.652344 592.054688 637.050781 C 587.910156 640.453125 583.683594 643.75 579.378906 646.941406 C 575.074219 650.136719 570.691406 653.222656 566.234375 656.199219 C 561.777344 659.179688 557.25 662.046875 552.652344 664.800781 C 548.054688 667.558594 543.390625 670.199219 538.664062 672.726562 C 533.933594 675.253906 529.148438 677.664062 524.300781 679.953125 C 519.457031 682.246094 514.554688 684.417969 509.605469 686.46875 C 504.652344 688.523438 499.652344 690.449219 494.605469 692.257812 C 489.554688 694.0625 484.46875 695.742188 479.339844 697.300781 C 474.207031 698.855469 469.042969 700.285156 463.84375 701.585938 C 458.644531 702.890625 453.414062 704.0625 448.15625 705.109375 C 442.898438 706.15625 437.617188 707.070312 432.316406 707.859375 C 427.011719 708.644531 421.695312 709.300781 416.359375 709.828125 C 411.023438 710.351562 405.679688 710.746094 400.324219 711.007812 C 394.972656 711.273438 389.613281 711.402344 384.253906 711.402344 C 378.894531 711.402344 373.535156 711.273438 368.179688 711.007812 C 362.828125 710.746094 357.480469 710.351562 352.148438 709.828125 C 346.8125 709.300781 341.492188 708.644531 336.191406 707.859375 C 330.886719 707.070312 325.609375 706.15625 320.351562 705.109375 C 315.09375 704.0625 309.863281 702.890625 304.664062 701.585938 C 299.464844 700.285156 294.296875 698.855469 289.167969 697.300781 C 284.039062 695.742188 278.949219 694.0625 273.902344 692.257812 C 268.855469 690.449219 263.855469 688.523438 258.902344 686.46875 C 253.949219 684.417969 249.050781 682.246094 244.207031 679.953125 C 239.359375 677.664062 234.570312 675.253906 229.84375 672.726562 C 225.117188 670.199219 220.453125 667.558594 215.855469 664.800781 C 211.257812 662.046875 206.730469 659.179688 202.273438 656.199219 C 197.816406 653.222656 193.433594 650.136719 189.128906 646.945312 C 184.824219 643.75 180.597656 640.453125 176.453125 637.050781 C 172.308594 633.652344 168.253906 630.152344 164.28125 626.550781 C 160.308594 622.949219 156.425781 619.253906 152.636719 615.464844 C 148.84375 611.675781 145.148438 607.792969 141.550781 603.820312 C 137.949219 599.847656 134.449219 595.792969 131.050781 591.648438 C 127.648438 587.503906 124.351562 583.277344 121.15625 578.972656 C 117.964844 574.667969 114.878906 570.285156 111.902344 565.828125 C 108.921875 561.371094 106.054688 556.84375 103.300781 552.246094 C 100.542969 547.648438 97.902344 542.984375 95.375 538.257812 C 92.847656 533.527344 90.4375 528.742188 88.144531 523.894531 C 85.855469 519.050781 83.683594 514.152344 81.632812 509.199219 C 79.578125 504.246094 77.652344 499.246094 75.84375 494.199219 C 74.039062 489.152344 72.359375 484.0625 70.800781 478.933594 C 69.246094 473.800781 67.816406 468.636719 66.515625 463.4375 C 65.210938 458.238281 64.035156 453.007812 62.992188 447.75 C 61.945312 442.492188 61.027344 437.214844 60.242188 431.910156 C 59.457031 426.609375 58.800781 421.289062 58.273438 415.953125 C 57.75 410.617188 57.355469 405.273438 57.09375 399.921875 C 56.828125 394.566406 56.699219 389.207031 56.699219 383.847656 C 56.699219 378.488281 56.828125 373.128906 57.09375 367.777344 C 57.355469 362.421875 57.75 357.078125 58.273438 351.742188 C 58.800781 346.40625 59.457031 341.089844 60.242188 335.785156 C 61.027344 330.484375 61.945312 325.203125 62.992188 319.945312 C 64.035156 314.6875 65.210938 309.457031 66.515625 304.257812 C 67.816406 299.058594 69.246094 293.894531 70.800781 288.761719 C 72.359375 283.632812 74.039062 278.542969 75.84375 273.496094 C 77.652344 268.449219 79.578125 263.449219 81.632812 258.496094 C 83.683594 253.542969 85.855469 248.644531 88.144531 243.800781 C 90.4375 238.953125 92.847656 234.167969 95.375 229.4375 C 97.902344 224.710938 100.542969 220.046875 103.300781 215.449219 C 106.054688 210.851562 108.921875 206.324219 111.902344 201.867188 C 114.878906 197.410156 117.964844 193.027344 121.15625 188.722656 C 124.351562 184.417969 127.648438 180.191406 131.050781 176.046875 C 134.449219 171.90625 137.949219 167.847656 141.550781 163.875 C 145.148438 159.902344 148.84375 156.019531 152.636719 152.230469 C 156.425781 148.441406 160.308594 144.746094 164.28125 141.144531 C 168.253906 137.542969 172.308594 134.042969 176.453125 130.644531 C 180.597656 127.242188 184.824219 123.945312 189.128906 120.753906 C 193.433594 117.558594 197.816406 114.472656 202.273438 111.496094 C 206.730469 108.515625 211.257812 105.648438 215.855469 102.894531 C 220.453125 100.136719 225.117188 97.496094 229.84375 94.96875 C 234.574219 92.441406 239.359375 90.03125 244.207031 87.742188 C 249.050781 85.449219 253.949219 83.277344 258.902344 81.226562 C 263.855469 79.175781 268.855469 77.246094 273.902344 75.4375 C 278.949219 73.632812 284.039062 71.953125 289.167969 70.394531 C 294.296875 68.839844 299.464844 67.410156 304.664062 66.109375 C 309.863281 64.804688 315.09375 63.632812 320.351562 62.585938 C 325.609375 61.539062 330.886719 60.625 336.191406 59.835938 C 341.492188 59.050781 346.8125 58.394531 352.148438 57.867188 C 357.480469 57.34375 362.828125 56.949219 368.179688 56.6875 C 373.535156 56.421875 378.894531 56.292969 384.253906 56.292969 C 389.613281 56.292969 394.972656 56.421875 400.324219 56.6875 C 405.679688 56.949219 411.023438 57.34375 416.359375 57.867188 C 421.695312 58.394531 427.011719 59.050781 432.316406 59.835938 C 437.617188 60.625 442.898438 61.539062 448.15625 62.585938 C 453.414062 63.632812 458.644531 64.804688 463.84375 66.109375 C 469.042969 67.410156 474.207031 68.839844 479.339844 70.394531 C 484.46875 71.953125 489.554688 73.632812 494.605469 75.4375 C 499.652344 77.246094 504.652344 79.175781 509.605469 81.226562 C 514.554688 83.277344 519.457031 85.449219 524.300781 87.742188 C 529.148438 90.03125 533.933594 92.441406 538.664062 94.96875 C 543.390625 97.496094 548.054688 100.136719 552.652344 102.894531 C 557.25 105.648438 561.777344 108.515625 566.234375 111.496094 C 570.691406 114.472656 575.074219 117.558594 579.378906 120.753906 C 583.683594 123.945312 587.910156 127.242188 592.054688 130.644531 C 596.195312 134.042969 600.253906 137.542969 604.226562 141.144531 C 608.199219 144.746094 612.082031 148.441406 615.871094 152.230469 C 619.660156 156.019531 623.355469 159.902344 626.957031 163.875 C 630.554688 167.847656 634.058594 171.90625 637.457031 176.046875 C 640.859375 180.191406 644.15625 184.417969 647.347656 188.722656 C 650.542969 193.027344 653.628906 197.410156 656.605469 201.867188 C 659.585938 206.324219 662.453125 210.851562 665.207031 215.449219 C 667.964844 220.046875 670.605469 224.710938 673.132812 229.4375 C 675.660156 234.167969 678.070312 238.953125 680.359375 243.800781 C 682.652344 248.644531 684.824219 253.542969 686.875 258.496094 C 688.925781 263.449219 690.855469 268.449219 692.660156 273.496094 C 694.46875 278.542969 696.148438 283.632812 697.707031 288.761719 C 699.261719 293.894531 700.691406 299.058594 701.992188 304.257812 C 703.296875 309.457031 704.46875 314.6875 705.515625 319.945312 C 706.5625 325.203125 707.476562 330.484375 708.265625 335.785156 C 709.050781 341.089844 709.707031 346.40625 710.230469 351.742188 C 710.757812 357.078125 711.152344 362.421875 711.414062 367.777344 C 711.679688 373.128906 711.808594 378.488281 711.808594 383.847656 Z M 711.808594 383.847656 " fill-opacity="1" fill-rule="nonzero"/><path fill="#e8e8e8" d="M 435.371094 464.734375 L 332.78125 464.734375 C 332.214844 464.734375 331.648438 464.707031 331.085938 464.652344 C 330.519531 464.597656 329.960938 464.511719 329.40625 464.402344 C 328.851562 464.292969 328.300781 464.15625 327.757812 463.992188 C 327.21875 463.828125 326.683594 463.636719 326.160156 463.417969 C 325.636719 463.203125 325.128906 462.960938 324.628906 462.691406 C 324.128906 462.425781 323.644531 462.136719 323.171875 461.820312 C 322.703125 461.507812 322.246094 461.167969 321.808594 460.808594 C 321.371094 460.449219 320.953125 460.070312 320.550781 459.671875 C 320.152344 459.269531 319.769531 458.851562 319.410156 458.414062 C 319.050781 457.976562 318.714844 457.519531 318.402344 457.050781 C 318.085938 456.578125 317.796875 456.09375 317.527344 455.59375 C 317.261719 455.09375 317.019531 454.582031 316.804688 454.058594 C 316.585938 453.535156 316.394531 453.003906 316.230469 452.460938 C 316.066406 451.921875 315.929688 451.371094 315.820312 450.816406 C 315.707031 450.261719 315.625 449.699219 315.570312 449.136719 C 315.515625 448.574219 315.488281 448.007812 315.488281 447.441406 C 315.488281 446.875 315.515625 446.3125 315.570312 445.746094 C 315.625 445.183594 315.707031 444.625 315.820312 444.066406 C 315.929688 443.511719 316.066406 442.964844 316.230469 442.421875 C 316.394531 441.878906 316.585938 441.347656 316.804688 440.824219 C 317.019531 440.300781 317.261719 439.789062 317.527344 439.289062 C 317.796875 438.789062 318.085938 438.304688 318.402344 437.835938 C 318.714844 437.363281 319.050781 436.910156 319.410156 436.472656 C 319.769531 436.035156 320.152344 435.613281 320.550781 435.214844 C 320.953125 434.8125 321.371094 434.433594 321.808594 434.074219 C 322.246094 433.714844 322.699219 433.378906 323.171875 433.0625 C 323.644531 432.75 324.128906 432.457031 324.628906 432.191406 C 325.128906 431.925781 325.636719 431.683594 326.160156 431.464844 C 326.683594 431.25 327.21875 431.058594 327.757812 430.894531 C 328.300781 430.730469 328.851562 430.589844 329.40625 430.480469 C 329.960938 430.371094 330.519531 430.289062 331.085938 430.230469 C 331.648438 430.175781 332.214844 430.148438 332.78125 430.148438 L 435.371094 430.148438 C 435.9375 430.148438 436.503906 430.175781 437.066406 430.230469 C 437.632812 430.289062 438.191406 430.371094 438.746094 430.480469 C 439.300781 430.589844 439.851562 430.730469 440.390625 430.894531 C 440.933594 431.058594 441.46875 431.25 441.988281 431.464844 C 442.511719 431.683594 443.023438 431.925781 443.523438 432.191406 C 444.023438 432.457031 444.507812 432.75 444.980469 433.0625 C 445.449219 433.378906 445.90625 433.714844 446.34375 434.074219 C 446.78125 434.433594 447.199219 434.8125 447.601562 435.214844 C 448 435.613281 448.378906 436.035156 448.738281 436.472656 C 449.097656 436.910156 449.4375 437.363281 449.75 437.835938 C 450.066406 438.304688 450.355469 438.789062 450.625 439.289062 C 450.890625 439.789062 451.132812 440.300781 451.347656 440.824219 C 451.566406 441.347656 451.757812 441.878906 451.921875 442.421875 C 452.085938 442.964844 452.222656 443.511719 452.332031 444.066406 C 452.445312 444.625 452.527344 445.183594 452.582031 445.746094 C 452.636719 446.3125 452.664062 446.875 452.664062 447.441406 C 452.664062 448.007812 452.636719 448.574219 452.582031 449.136719 C 452.527344 449.699219 452.445312 450.261719 452.332031 450.816406 C 452.222656 451.371094 452.085938 451.921875 451.921875 452.460938 C 451.757812 453.003906 451.566406 453.535156 451.347656 454.058594 C 451.132812 454.582031 450.890625 455.09375 450.625 455.59375 C 450.355469 456.09375 450.066406 456.578125 449.75 457.050781 C 449.4375 457.519531 449.097656 457.976562 448.738281 458.414062 C 448.382812 458.851562 448 459.269531 447.601562 459.671875 C 447.199219 460.070312 446.78125 460.449219 446.34375 460.808594 C 445.90625 461.167969 445.449219 461.507812 444.980469 461.820312 C 444.507812 462.136719 444.023438 462.425781 443.523438 462.691406 C 443.023438 462.960938 442.511719 463.203125 441.988281 463.417969 C 441.46875 463.636719 440.933594 463.828125 440.390625 463.992188 C 439.851562 464.15625 439.300781 464.292969 438.746094 464.402344 C 438.191406 464.511719 437.632812 464.597656 437.066406 464.652344 C 436.503906 464.707031 435.9375 464.734375 435.371094 464.734375 M 332.78125 326.339844 L 383.492188 326.339844 C 384.078125 326.308594 384.667969 326.304688 385.253906 326.332031 C 385.839844 326.359375 386.425781 326.417969 387.003906 326.507812 C 387.585938 326.59375 388.160156 326.710938 388.730469 326.855469 C 389.300781 327 389.859375 327.175781 390.414062 327.378906 C 390.964844 327.582031 391.503906 327.8125 392.03125 328.066406 C 392.558594 328.324219 393.074219 328.609375 393.574219 328.917969 C 394.074219 329.230469 394.554688 329.5625 395.019531 329.921875 C 395.484375 330.28125 395.933594 330.664062 396.359375 331.066406 C 396.785156 331.46875 397.191406 331.894531 397.574219 332.339844 C 397.957031 332.785156 398.316406 333.25 398.652344 333.730469 C 398.988281 334.214844 399.300781 334.710938 399.585938 335.222656 C 399.871094 335.738281 400.128906 336.265625 400.363281 336.804688 C 400.59375 337.34375 400.800781 337.894531 400.976562 338.453125 C 401.152344 339.015625 401.300781 339.582031 401.417969 340.160156 C 401.535156 340.734375 401.625 341.316406 401.683594 341.898438 C 401.746094 342.484375 401.773438 343.070312 401.773438 343.65625 C 401.773438 344.246094 401.746094 344.832031 401.683594 345.417969 C 401.625 346 401.535156 346.582031 401.417969 347.15625 C 401.300781 347.730469 401.152344 348.300781 400.976562 348.859375 C 400.800781 349.421875 400.59375 349.972656 400.363281 350.511719 C 400.128906 351.050781 399.871094 351.578125 399.585938 352.089844 C 399.300781 352.605469 398.988281 353.101562 398.652344 353.582031 C 398.316406 354.066406 397.957031 354.53125 397.574219 354.976562 C 397.191406 355.421875 396.785156 355.84375 396.359375 356.25 C 395.933594 356.652344 395.484375 357.035156 395.019531 357.394531 C 394.554688 357.75 394.074219 358.085938 393.574219 358.394531 C 393.074219 358.707031 392.558594 358.988281 392.03125 359.246094 C 391.503906 359.503906 390.964844 359.734375 390.414062 359.9375 C 389.859375 360.140625 389.300781 360.3125 388.730469 360.460938 C 388.160156 360.605469 387.585938 360.722656 387.003906 360.808594 C 386.425781 360.898438 385.839844 360.953125 385.253906 360.980469 C 384.667969 361.011719 384.078125 361.007812 383.492188 360.976562 L 332.78125 360.976562 C 332.191406 361.007812 331.605469 361.011719 331.019531 360.980469 C 330.433594 360.953125 329.847656 360.898438 329.265625 360.808594 C 328.6875 360.722656 328.109375 360.605469 327.542969 360.460938 C 326.972656 360.3125 326.410156 360.140625 325.859375 359.9375 C 325.308594 359.734375 324.769531 359.503906 324.242188 359.246094 C 323.710938 358.988281 323.199219 358.707031 322.699219 358.394531 C 322.199219 358.085938 321.71875 357.75 321.253906 357.394531 C 320.785156 357.035156 320.339844 356.652344 319.914062 356.25 C 319.488281 355.84375 319.082031 355.417969 318.699219 354.972656 C 318.316406 354.527344 317.957031 354.066406 317.621094 353.582031 C 317.285156 353.101562 316.972656 352.605469 316.6875 352.089844 C 316.402344 351.578125 316.140625 351.050781 315.910156 350.511719 C 315.675781 349.972656 315.472656 349.421875 315.296875 348.859375 C 315.121094 348.300781 314.972656 347.730469 314.855469 347.15625 C 314.734375 346.582031 314.648438 346 314.585938 345.414062 C 314.527344 344.832031 314.5 344.246094 314.5 343.65625 C 314.5 343.070312 314.527344 342.484375 314.585938 341.898438 C 314.648438 341.316406 314.734375 340.734375 314.855469 340.160156 C 314.972656 339.582031 315.121094 339.015625 315.296875 338.453125 C 315.472656 337.894531 315.675781 337.34375 315.910156 336.804688 C 316.140625 336.265625 316.402344 335.738281 316.6875 335.222656 C 316.972656 334.710938 317.285156 334.214844 317.621094 333.730469 C 317.957031 333.25 318.316406 332.785156 318.699219 332.339844 C 319.082031 331.894531 319.488281 331.472656 319.914062 331.066406 C 320.339844 330.664062 320.785156 330.28125 321.253906 329.921875 C 321.71875 329.5625 322.199219 329.230469 322.699219 328.917969 C 323.199219 328.609375 323.710938 328.324219 324.242188 328.070312 C 324.769531 327.8125 325.308594 327.582031 325.859375 327.378906 C 326.410156 327.175781 326.972656 327 327.542969 326.855469 C 328.109375 326.710938 328.6875 326.59375 329.265625 326.507812 C 329.847656 326.417969 330.433594 326.359375 331.019531 326.332031 C 331.605469 326.304688 332.191406 326.308594 332.78125 326.339844 M 520.417969 363.308594 C 514.332031 360.722656 488.316406 363.308594 481.117188 357.070312 C 476.042969 352.355469 475.6875 343.835938 473.710938 332.476562 C 470.363281 313.507812 468.996094 309.199219 465.496094 301.691406 C 452.917969 275.015625 422.644531 252.195312 395.207031 252.195312 L 331.664062 252.195312 C 330.175781 252.195312 328.6875 252.234375 327.199219 252.304688 C 325.714844 252.378906 324.230469 252.488281 322.75 252.632812 C 321.265625 252.777344 319.789062 252.960938 318.316406 253.175781 C 316.84375 253.394531 315.378906 253.648438 313.917969 253.9375 C 312.457031 254.226562 311.003906 254.550781 309.558594 254.914062 C 308.117188 255.273438 306.679688 255.667969 305.257812 256.097656 C 303.832031 256.53125 302.417969 256.996094 301.015625 257.496094 C 299.613281 257.996094 298.222656 258.527344 296.847656 259.097656 C 295.472656 259.664062 294.109375 260.265625 292.765625 260.898438 C 291.417969 261.535156 290.085938 262.199219 288.773438 262.898438 C 287.457031 263.597656 286.164062 264.332031 284.882812 265.09375 C 283.605469 265.855469 282.347656 266.648438 281.105469 267.472656 C 279.867188 268.300781 278.648438 269.152344 277.453125 270.039062 C 276.253906 270.921875 275.078125 271.835938 273.925781 272.777344 C 272.773438 273.71875 271.644531 274.6875 270.539062 275.683594 C 269.429688 276.679688 268.351562 277.703125 267.296875 278.753906 C 266.238281 279.804688 265.210938 280.878906 264.207031 281.976562 C 263.203125 283.078125 262.230469 284.203125 261.28125 285.351562 C 260.332031 286.496094 259.414062 287.667969 258.523438 288.859375 C 257.632812 290.054688 256.769531 291.265625 255.941406 292.503906 C 255.109375 293.738281 254.308594 294.992188 253.539062 296.265625 C 252.769531 297.539062 252.03125 298.832031 251.324219 300.140625 C 250.617188 301.453125 249.941406 302.777344 249.300781 304.121094 C 248.65625 305.464844 248.050781 306.824219 247.472656 308.195312 C 246.898438 309.570312 246.355469 310.957031 245.847656 312.355469 C 245.34375 313.753906 244.867188 315.164062 244.429688 316.585938 C 243.992188 318.011719 243.589844 319.441406 243.21875 320.886719 C 242.851562 322.328125 242.519531 323.777344 242.21875 325.238281 C 241.921875 326.695312 241.660156 328.160156 241.433594 329.632812 C 241.210938 331.101562 241.019531 332.578125 240.867188 334.058594 C 240.710938 335.539062 240.59375 337.023438 240.515625 338.511719 C 240.433594 339.996094 240.386719 341.484375 240.378906 342.972656 L 240.378906 448.761719 C 240.390625 450.246094 240.441406 451.730469 240.523438 453.214844 C 240.609375 454.699219 240.726562 456.183594 240.882812 457.660156 C 241.039062 459.136719 241.234375 460.613281 241.460938 462.082031 C 241.691406 463.550781 241.953125 465.011719 242.253906 466.46875 C 242.554688 467.925781 242.890625 469.371094 243.261719 470.8125 C 243.628906 472.25 244.035156 473.679688 244.476562 475.101562 C 244.917969 476.519531 245.390625 477.929688 245.902344 479.324219 C 246.410156 480.722656 246.953125 482.105469 247.53125 483.472656 C 248.109375 484.84375 248.71875 486.199219 249.359375 487.539062 C 250.003906 488.878906 250.679688 490.203125 251.386719 491.511719 C 252.09375 492.816406 252.832031 494.109375 253.605469 495.378906 C 254.375 496.648438 255.175781 497.902344 256.007812 499.132812 C 256.839844 500.367188 257.703125 501.578125 258.59375 502.765625 C 259.484375 503.957031 260.402344 505.125 261.351562 506.269531 C 262.300781 507.414062 263.273438 508.535156 264.277344 509.632812 C 265.28125 510.730469 266.308594 511.800781 267.367188 512.847656 C 268.421875 513.894531 269.5 514.917969 270.605469 515.910156 C 271.710938 516.90625 272.839844 517.871094 273.992188 518.808594 C 275.144531 519.75 276.320312 520.660156 277.515625 521.542969 C 278.710938 522.421875 279.929688 523.277344 281.167969 524.097656 C 282.40625 524.921875 283.664062 525.710938 284.941406 526.472656 C 286.21875 527.234375 287.515625 527.960938 288.828125 528.660156 C 290.140625 529.359375 291.46875 530.023438 292.8125 530.65625 C 294.160156 531.289062 295.519531 531.886719 296.894531 532.453125 C 298.269531 533.019531 299.65625 533.550781 301.054688 534.050781 C 302.457031 534.546875 303.867188 535.011719 305.292969 535.441406 C 306.714844 535.871094 308.148438 536.265625 309.589844 536.625 C 311.03125 536.984375 312.484375 537.308594 313.941406 537.597656 C 315.398438 537.886719 316.863281 538.140625 318.335938 538.355469 C 319.804688 538.574219 321.28125 538.753906 322.761719 538.898438 C 324.238281 539.042969 325.722656 539.152344 327.207031 539.226562 C 328.691406 539.296875 330.175781 539.335938 331.664062 539.335938 L 436.132812 539.335938 C 437.621094 539.335938 439.105469 539.296875 440.589844 539.226562 C 442.074219 539.152344 443.558594 539.042969 445.035156 538.898438 C 446.515625 538.753906 447.992188 538.574219 449.460938 538.355469 C 450.933594 538.140625 452.398438 537.886719 453.855469 537.597656 C 455.3125 537.308594 456.761719 536.984375 458.207031 536.625 C 459.648438 536.265625 461.082031 535.871094 462.503906 535.441406 C 463.925781 535.011719 465.339844 534.550781 466.738281 534.050781 C 468.140625 533.550781 469.527344 533.019531 470.902344 532.453125 C 472.277344 531.886719 473.636719 531.289062 474.980469 530.65625 C 476.328125 530.023438 477.65625 529.359375 478.96875 528.660156 C 480.28125 527.964844 481.578125 527.234375 482.855469 526.472656 C 484.132812 525.710938 485.390625 524.921875 486.628906 524.097656 C 487.867188 523.277344 489.082031 522.425781 490.28125 521.542969 C 491.476562 520.660156 492.652344 519.75 493.804688 518.8125 C 494.957031 517.871094 496.085938 516.90625 497.191406 515.910156 C 498.296875 514.917969 499.375 513.898438 500.429688 512.847656 C 501.484375 511.800781 502.515625 510.730469 503.519531 509.632812 C 504.519531 508.535156 505.496094 507.414062 506.445312 506.269531 C 507.390625 505.125 508.3125 503.957031 509.203125 502.765625 C 510.09375 501.578125 510.957031 500.367188 511.789062 499.132812 C 512.621094 497.902344 513.421875 496.652344 514.191406 495.378906 C 514.960938 494.109375 515.703125 492.820312 516.410156 491.511719 C 517.117188 490.203125 517.792969 488.882812 518.433594 487.539062 C 519.078125 486.199219 519.6875 484.84375 520.265625 483.476562 C 520.84375 482.105469 521.386719 480.722656 521.894531 479.324219 C 522.402344 477.929688 522.878906 476.519531 523.320312 475.101562 C 523.761719 473.679688 524.164062 472.25 524.535156 470.8125 C 524.90625 469.371094 525.242188 467.925781 525.542969 466.46875 C 525.84375 465.011719 526.105469 463.550781 526.335938 462.082031 C 526.5625 460.613281 526.753906 459.136719 526.914062 457.660156 C 527.070312 456.183594 527.1875 454.699219 527.273438 453.214844 C 527.355469 451.734375 527.40625 450.246094 527.417969 448.761719 L 527.824219 375.277344 C 527.824219 374.027344 527.65625 372.800781 527.320312 371.59375 C 526.988281 370.390625 526.5 369.253906 525.855469 368.179688 C 525.214844 367.109375 524.4375 366.140625 523.53125 365.28125 C 522.628906 364.417969 521.621094 363.695312 520.519531 363.105469 " fill-opacity="1" fill-rule="nonzero"/><g clip-path="url(#5d67fb8a48)"><g clip-path="url(#8d28ca8347)"><path fill="#e4e3ff" d="M 518.320312 448.40625 C 507.238281 453.550781 500.800781 463.203125 503.941406 469.964844 C 507.078125 476.726562 518.609375 478.035156 529.691406 472.890625 C 540.773438 467.742188 547.210938 458.089844 544.074219 451.328125 C 540.933594 444.566406 529.402344 443.257812 518.320312 448.40625 " fill-opacity="1" fill-rule="nonzero"/></g></g><path fill="#b50b38" d="M 231.742188 206.386719 L 231.742188 488.003906 C 231.742188 503.226562 240.65625 517.558594 254.460938 523.691406 L 374.894531 577.183594 C 379.777344 579.355469 384.992188 580.4375 390.210938 580.4375 C 395.425781 580.4375 400.648438 579.355469 405.523438 577.183594 L 525.957031 523.691406 C 539.761719 517.558594 548.675781 503.230469 548.675781 488.003906 L 548.675781 206.386719 C 548.675781 195.882812 540.160156 187.367188 529.660156 187.367188 L 212.726562 187.367188 C 223.230469 187.367188 231.742188 195.882812 231.742188 206.386719 Z M 231.742188 206.386719 " fill-opacity="1" fill-rule="nonzero"/><path fill="#f20f4b" d="M 548.675781 206.386719 L 548.675781 488.003906 C 548.675781 503.21875 539.738281 517.546875 525.980469 523.695312 L 463.992188 551.210938 C 351.101562 509.050781 269.773438 390.433594 269.773438 250.765625 C 269.773438 229.019531 271.742188 207.84375 275.480469 187.367188 L 529.660156 187.367188 C 540.179688 187.367188 548.675781 195.863281 548.675781 206.386719 Z M 548.675781 206.386719 " fill-opacity="1" fill-rule="nonzero"/><path fill="#f7b011" d="M 453.59375 269.785156 L 428.242188 320.503906 L 339.5 320.503906 L 314.144531 269.785156 L 364.855469 301.484375 L 370.558594 284.367188 L 383.871094 244.425781 L 402.886719 301.484375 Z M 453.59375 269.785156 " fill-opacity="1" fill-rule="nonzero"/><path fill="#fcee21" d="M 453.59375 269.785156 L 428.242188 320.503906 L 392.617188 320.503906 C 382.855469 310.234375 375.3125 297.996094 370.558594 284.367188 L 383.871094 244.425781 L 402.886719 301.484375 Z M 453.59375 269.785156 " fill-opacity="1" fill-rule="nonzero"/><path fill="#c8c2b5" d="M 206.390625 352.203125 L 574.027344 352.203125 L 574.027344 459.980469 L 206.390625 459.980469 Z M 206.390625 352.203125 " fill-opacity="1" fill-rule="nonzero"/><path fill="#e7e5e0" d="M 574.027344 352.203125 L 574.027344 459.980469 L 340.769531 459.980469 C 316.109375 428.851562 296.90625 392.335938 284.734375 352.203125 Z M 574.027344 352.203125 " fill-opacity="1" fill-rule="nonzero"/><path fill="#202d35" d="M 231.742188 206.386719 C 231.742188 195.882812 223.230469 187.367188 212.726562 187.367188 C 202.226562 187.367188 193.710938 195.882812 193.710938 206.386719 L 193.710938 231.746094 L 231.742188 231.746094 Z M 231.742188 206.386719 " fill-opacity="1" fill-rule="nonzero"/><path fill="#a7a297" d="M 345.839844 440.960938 L 333.160156 440.960938 C 322.675781 440.960938 314.144531 432.425781 314.144531 421.941406 L 314.144531 396.582031 C 314.144531 386.097656 322.675781 377.5625 333.160156 377.5625 L 345.839844 377.5625 C 349.34375 377.5625 352.175781 380.398438 352.175781 383.902344 C 352.175781 387.410156 349.34375 390.242188 345.839844 390.242188 L 333.160156 390.242188 C 329.664062 390.242188 326.824219 393.082031 326.824219 396.582031 L 326.824219 421.941406 C 326.824219 425.441406 329.664062 428.28125 333.160156 428.28125 L 345.839844 428.28125 C 349.34375 428.28125 352.175781 431.117188 352.175781 434.621094 C 352.175781 438.128906 349.34375 440.960938 345.839844 440.960938 Z M 345.839844 440.960938 " fill-opacity="1" fill-rule="nonzero"/><path fill="#a7a297" d="M 333.160156 415.601562 L 320.484375 415.601562 C 316.980469 415.601562 314.144531 412.769531 314.144531 409.261719 C 314.144531 405.757812 316.980469 402.921875 320.484375 402.921875 L 333.160156 402.921875 C 336.667969 402.921875 339.5 405.757812 339.5 409.261719 C 339.5 412.769531 336.667969 415.601562 333.160156 415.601562 Z M 333.160156 415.601562 " fill-opacity="1" fill-rule="nonzero"/><path fill="#a7a297" d="M 301.46875 440.960938 C 297.964844 440.960938 295.128906 438.128906 295.128906 434.621094 L 295.128906 421.941406 C 295.128906 418.441406 292.289062 415.601562 288.792969 415.601562 C 285.292969 415.601562 282.453125 412.769531 282.453125 409.261719 C 282.453125 405.757812 285.285156 402.921875 288.792969 402.921875 C 292.296875 402.921875 295.128906 400.082031 295.128906 396.582031 C 295.128906 393.082031 292.289062 390.242188 288.792969 390.242188 L 276.113281 390.242188 L 276.113281 434.621094 C 276.113281 438.128906 273.28125 440.960938 269.773438 440.960938 C 266.269531 440.960938 263.4375 438.128906 263.4375 434.621094 L 263.4375 383.902344 C 263.4375 380.398438 266.269531 377.5625 269.773438 377.5625 L 288.792969 377.5625 C 299.273438 377.5625 307.808594 386.097656 307.808594 396.582031 C 307.808594 401.453125 305.96875 405.894531 302.953125 409.261719 C 305.96875 412.628906 307.808594 417.074219 307.808594 421.941406 L 307.808594 434.621094 C 307.808594 438.128906 304.972656 440.960938 301.46875 440.960938 Z M 301.46875 440.960938 " fill-opacity="1" fill-rule="nonzero"/><path fill="#a7a297" d="M 219.066406 440.960938 C 215.5625 440.960938 212.726562 438.128906 212.726562 434.621094 L 212.726562 383.902344 C 212.726562 380.398438 215.5625 377.5625 219.066406 377.5625 L 238.082031 377.5625 C 248.566406 377.5625 257.097656 386.097656 257.097656 396.582031 C 257.097656 407.066406 248.566406 415.601562 238.082031 415.601562 C 234.578125 415.601562 231.742188 412.769531 231.742188 409.261719 C 231.742188 405.757812 234.578125 402.921875 238.082031 402.921875 C 241.585938 402.921875 244.421875 400.082031 244.421875 396.582031 C 244.421875 393.082031 241.582031 390.242188 238.082031 390.242188 L 225.40625 390.242188 L 225.40625 434.621094 C 225.40625 438.128906 222.570312 440.960938 219.066406 440.960938 Z M 219.066406 440.960938 " fill-opacity="1" fill-rule="nonzero"/><path fill="#a7a297" d="M 402.886719 440.960938 C 399.382812 440.960938 396.546875 438.128906 396.546875 434.621094 L 396.546875 402.921875 L 388.941406 413.066406 C 386.550781 416.261719 381.1875 416.261719 378.800781 413.066406 L 371.191406 402.921875 L 371.191406 434.621094 C 371.191406 438.128906 368.359375 440.960938 364.855469 440.960938 C 361.347656 440.960938 358.515625 438.128906 358.515625 434.621094 L 358.515625 383.902344 C 358.515625 381.171875 360.257812 378.753906 362.851562 377.890625 C 365.449219 377.015625 368.289062 377.917969 369.925781 380.105469 L 383.871094 398.699219 L 397.816406 380.105469 C 399.449219 377.917969 402.296875 377.03125 404.890625 377.890625 C 407.476562 378.753906 409.226562 381.175781 409.226562 383.902344 L 409.226562 434.621094 C 409.226562 438.128906 406.390625 440.960938 402.886719 440.960938 Z M 402.886719 440.960938 " fill-opacity="1" fill-rule="nonzero"/><path fill="#a7a297" d="M 548.675781 440.960938 C 545.167969 440.960938 542.335938 438.128906 542.335938 434.621094 L 542.335938 402.921875 L 534.730469 413.066406 C 532.339844 416.261719 526.976562 416.261719 524.585938 413.066406 L 516.980469 402.921875 L 516.980469 434.621094 C 516.980469 438.128906 514.148438 440.960938 510.644531 440.960938 C 507.136719 440.960938 504.304688 438.128906 504.304688 434.621094 L 504.304688 383.902344 C 504.304688 381.171875 506.046875 378.753906 508.640625 377.890625 C 511.238281 377.015625 514.078125 377.917969 515.714844 380.105469 L 529.660156 398.699219 L 543.605469 380.105469 C 545.238281 377.917969 548.078125 377.03125 550.675781 377.890625 C 553.261719 378.753906 555.011719 381.175781 555.011719 383.902344 L 555.011719 434.621094 C 555.011719 438.128906 552.179688 440.960938 548.675781 440.960938 Z M 548.675781 440.960938 " fill-opacity="1" fill-rule="nonzero"/><path fill="#a7a297" d="M 428.242188 440.960938 C 424.734375 440.960938 421.902344 438.128906 421.902344 434.621094 L 421.902344 383.902344 C 421.902344 380.398438 424.734375 377.5625 428.242188 377.5625 C 431.746094 377.5625 434.578125 380.398438 434.578125 383.902344 L 434.578125 434.621094 C 434.578125 438.128906 431.746094 440.960938 428.242188 440.960938 Z M 428.242188 440.960938 " fill-opacity="1" fill-rule="nonzero"/><path fill="#a7a297" d="M 472.609375 440.960938 C 458.628906 440.960938 447.257812 429.585938 447.257812 415.601562 L 447.257812 383.902344 C 447.257812 380.398438 450.089844 377.5625 453.59375 377.5625 C 457.101562 377.5625 459.933594 380.398438 459.933594 383.902344 L 459.933594 415.601562 C 459.933594 422.589844 465.621094 428.28125 472.609375 428.28125 C 479.601562 428.28125 485.289062 422.59375 485.289062 415.601562 L 485.289062 383.902344 C 485.289062 380.398438 488.121094 377.5625 491.625 377.5625 C 495.132812 377.5625 497.964844 380.398438 497.964844 383.902344 L 497.964844 415.601562 C 497.964844 429.585938 486.59375 440.960938 472.609375 440.960938 Z M 472.609375 440.960938 " fill-opacity="1" fill-rule="nonzero"/><path fill="#1d252d" d="M 428.242188 326.84375 L 339.5 326.84375 C 337.097656 326.84375 334.90625 325.488281 333.828125 323.339844 L 308.472656 272.621094 C 307.203125 270.082031 307.78125 267.003906 309.878906 265.085938 C 311.992188 263.179688 315.101562 262.894531 317.503906 264.410156 L 361.386719 291.835938 L 377.863281 242.417969 C 378.722656 239.828125 381.144531 238.078125 383.871094 238.078125 C 386.597656 238.078125 389.015625 239.824219 389.878906 242.417969 L 406.351562 291.835938 L 450.234375 264.410156 C 452.636719 262.894531 455.75 263.179688 457.859375 265.085938 C 459.960938 267.003906 460.535156 270.078125 459.269531 272.621094 L 433.914062 323.339844 C 432.835938 325.488281 430.644531 326.84375 428.242188 326.84375 Z M 343.417969 314.164062 L 424.324219 314.164062 L 437.855469 287.097656 L 406.253906 306.855469 C 404.605469 307.886719 402.582031 308.101562 400.742188 307.449219 C 398.917969 306.792969 397.492188 305.332031 396.882812 303.488281 L 383.875 264.472656 L 370.871094 303.488281 C 370.253906 305.332031 368.835938 306.792969 367.007812 307.449219 C 365.179688 308.109375 363.15625 307.886719 361.5 306.855469 L 329.898438 287.097656 L 343.429688 314.164062 Z M 343.417969 314.164062 " fill-opacity="1" fill-rule="nonzero"/><path fill="#1d252d" d="M 383.871094 250.765625 C 376.878906 250.765625 371.191406 245.078125 371.191406 238.085938 C 371.191406 231.09375 376.878906 225.40625 383.871094 225.40625 C 390.863281 225.40625 396.546875 231.09375 396.546875 238.085938 C 396.546875 245.078125 390.863281 250.765625 383.871094 250.765625 Z M 383.871094 238.074219 Z M 383.871094 238.074219 " fill-opacity="1" fill-rule="nonzero"/><path fill="#1d252d" d="M 314.144531 282.464844 C 307.152344 282.464844 301.46875 276.777344 301.46875 269.785156 C 301.46875 262.792969 307.152344 257.105469 314.144531 257.105469 C 321.136719 257.105469 326.824219 262.792969 326.824219 269.785156 C 326.824219 276.777344 321.136719 282.464844 314.144531 282.464844 Z M 314.144531 269.773438 Z M 314.144531 269.773438 " fill-opacity="1" fill-rule="nonzero"/><path fill="#1d252d" d="M 453.59375 282.464844 C 446.605469 282.464844 440.917969 276.777344 440.917969 269.785156 C 440.917969 262.792969 446.605469 257.105469 453.59375 257.105469 C 460.585938 257.105469 466.273438 262.792969 466.273438 269.785156 C 466.273438 276.777344 460.585938 282.464844 453.59375 282.464844 Z M 453.59375 269.773438 Z M 453.59375 269.773438 " fill-opacity="1" fill-rule="nonzero"/><g clip-path="url(#6861c74f7a)"><path fill="#1d252d" d="M 390.210938 586.777344 C 384.011719 586.777344 377.988281 585.503906 372.320312 582.980469 L 251.886719 529.484375 C 236.046875 522.453125 225.40625 505.78125 225.40625 488.003906 L 225.40625 459.980469 C 225.40625 456.476562 228.238281 453.640625 231.742188 453.640625 C 235.25 453.640625 238.082031 456.476562 238.082031 459.980469 L 238.082031 488.003906 C 238.082031 500.847656 245.695312 512.859375 257.027344 517.894531 L 377.46875 571.390625 C 385.539062 574.980469 394.875 574.980469 402.949219 571.390625 L 523.382812 517.894531 C 534.722656 512.859375 542.335938 500.855469 542.335938 488.003906 L 542.335938 459.980469 C 542.335938 456.476562 545.167969 453.640625 548.675781 453.640625 C 552.179688 453.640625 555.011719 456.476562 555.011719 459.980469 L 555.011719 488.003906 C 555.011719 505.78125 544.371094 522.453125 528.523438 529.484375 L 408.097656 582.980469 C 402.421875 585.496094 396.402344 586.777344 390.210938 586.777344 Z M 390.210938 586.777344 " fill-opacity="1" fill-rule="nonzero"/></g><path fill="#1d252d" d="M 231.742188 358.542969 C 228.238281 358.542969 225.40625 355.710938 225.40625 352.203125 L 225.40625 206.386719 C 225.40625 202.882812 228.238281 200.046875 231.742188 200.046875 C 235.25 200.046875 238.082031 202.882812 238.082031 206.386719 L 238.082031 352.203125 C 238.082031 355.710938 235.25 358.542969 231.742188 358.542969 Z M 231.742188 358.542969 " fill-opacity="1" fill-rule="nonzero"/><g clip-path="url(#e0823d51a2)"><path fill="#1d252d" d="M 574.027344 358.542969 L 206.390625 358.542969 C 202.882812 358.542969 200.050781 355.710938 200.050781 352.203125 C 200.050781 348.699219 202.882812 345.863281 206.390625 345.863281 L 574.027344 345.863281 C 577.535156 345.863281 580.367188 348.699219 580.367188 352.203125 C 580.367188 355.710938 577.535156 358.542969 574.027344 358.542969 Z M 574.027344 358.542969 " fill-opacity="1" fill-rule="nonzero"/></g><g clip-path="url(#d2dbc8e7a7)"><path fill="#1d252d" d="M 574.027344 466.320312 L 206.390625 466.320312 C 202.882812 466.320312 200.050781 463.488281 200.050781 459.980469 C 200.050781 456.476562 202.882812 453.640625 206.390625 453.640625 L 574.027344 453.640625 C 577.535156 453.640625 580.367188 456.476562 580.367188 459.980469 C 580.367188 463.488281 577.535156 466.320312 574.027344 466.320312 Z M 574.027344 466.320312 " fill-opacity="1" fill-rule="nonzero"/></g><g clip-path="url(#10ede3d670)"><path fill="#1d252d" d="M 231.742188 238.085938 L 193.710938 238.085938 C 190.207031 238.085938 187.375 235.253906 187.375 231.746094 L 187.375 206.386719 C 187.375 192.402344 198.746094 181.027344 212.726562 181.027344 C 226.710938 181.027344 238.082031 192.402344 238.082031 206.386719 C 238.082031 209.894531 235.25 212.726562 231.742188 212.726562 C 228.238281 212.726562 225.40625 209.894531 225.40625 206.386719 C 225.40625 199.394531 219.71875 193.707031 212.726562 193.707031 C 205.738281 193.707031 200.050781 199.394531 200.050781 206.386719 L 200.050781 225.40625 L 231.742188 225.40625 C 235.25 225.40625 238.082031 228.242188 238.082031 231.746094 C 238.082031 235.253906 235.25 238.085938 231.742188 238.085938 Z M 231.742188 238.085938 " fill-opacity="1" fill-rule="nonzero"/></g><g clip-path="url(#022a396bfc)"><path fill="#1d252d" d="M 548.675781 358.542969 C 545.167969 358.542969 542.335938 355.710938 542.335938 352.203125 L 542.335938 206.386719 C 542.335938 199.394531 536.648438 193.707031 529.660156 193.707031 L 212.726562 193.707031 C 209.222656 193.707031 206.390625 190.875 206.390625 187.367188 C 206.390625 183.863281 209.222656 181.027344 212.726562 181.027344 L 529.660156 181.027344 C 543.640625 181.027344 555.011719 192.402344 555.011719 206.386719 L 555.011719 352.203125 C 555.011719 355.710938 552.179688 358.542969 548.675781 358.542969 Z M 548.675781 358.542969 " fill-opacity="1" fill-rule="nonzero"/></g><path fill="#1d252d" d="M 352.175781 434.621094 L 339.5 434.621094 C 329.015625 434.621094 320.484375 426.085938 320.484375 415.601562 L 320.484375 390.242188 C 320.484375 379.757812 329.015625 371.222656 339.5 371.222656 L 352.175781 371.222656 C 355.683594 371.222656 358.515625 374.058594 358.515625 377.5625 C 358.515625 381.070312 355.683594 383.902344 352.175781 383.902344 L 339.5 383.902344 C 336 383.902344 333.160156 386.742188 333.160156 390.242188 L 333.160156 415.601562 C 333.160156 419.101562 336 421.941406 339.5 421.941406 L 352.175781 421.941406 C 355.683594 421.941406 358.515625 424.777344 358.515625 428.28125 C 358.515625 431.789062 355.683594 434.621094 352.175781 434.621094 Z M 352.175781 434.621094 " fill-opacity="1" fill-rule="nonzero"/><path fill="#1d252d" d="M 339.5 409.261719 L 326.824219 409.261719 C 323.316406 409.261719 320.484375 406.429688 320.484375 402.921875 C 320.484375 399.417969 323.316406 396.582031 326.824219 396.582031 L 339.5 396.582031 C 343.003906 396.582031 345.839844 399.417969 345.839844 402.921875 C 345.839844 406.429688 343.003906 409.261719 339.5 409.261719 Z M 339.5 409.261719 " fill-opacity="1" fill-rule="nonzero"/><path fill="#1d252d" d="M 307.808594 434.621094 C 304.300781 434.621094 301.46875 431.789062 301.46875 428.28125 L 301.46875 415.601562 C 301.46875 412.101562 298.628906 409.261719 295.128906 409.261719 C 291.632812 409.261719 288.792969 406.429688 288.792969 402.921875 C 288.792969 399.417969 291.625 396.582031 295.128906 396.582031 C 298.636719 396.582031 301.46875 393.742188 301.46875 390.242188 C 301.46875 386.742188 298.628906 383.902344 295.128906 383.902344 L 282.453125 383.902344 L 282.453125 428.28125 C 282.453125 431.789062 279.621094 434.621094 276.113281 434.621094 C 272.609375 434.621094 269.773438 431.789062 269.773438 428.28125 L 269.773438 377.5625 C 269.773438 374.058594 272.609375 371.222656 276.113281 371.222656 L 295.128906 371.222656 C 305.613281 371.222656 314.144531 379.757812 314.144531 390.242188 C 314.144531 395.113281 312.308594 399.554688 309.289062 402.921875 C 312.308594 406.289062 314.144531 410.734375 314.144531 415.601562 L 314.144531 428.28125 C 314.144531 431.789062 311.3125 434.621094 307.808594 434.621094 Z M 307.808594 434.621094 " fill-opacity="1" fill-rule="nonzero"/><path fill="#1d252d" d="M 225.40625 434.621094 C 221.898438 434.621094 219.066406 431.789062 219.066406 428.28125 L 219.066406 377.5625 C 219.066406 374.058594 221.898438 371.222656 225.40625 371.222656 L 244.421875 371.222656 C 254.90625 371.222656 263.4375 379.757812 263.4375 390.242188 C 263.4375 400.726562 254.90625 409.261719 244.421875 409.261719 C 240.914062 409.261719 238.082031 406.429688 238.082031 402.921875 C 238.082031 399.417969 240.914062 396.582031 244.421875 396.582031 C 247.925781 396.582031 250.757812 393.742188 250.757812 390.242188 C 250.757812 386.742188 247.917969 383.902344 244.421875 383.902344 L 231.742188 383.902344 L 231.742188 428.28125 C 231.742188 431.789062 228.910156 434.621094 225.40625 434.621094 Z M 225.40625 434.621094 " fill-opacity="1" fill-rule="nonzero"/><path fill="#1d252d" d="M 409.226562 434.621094 C 405.71875 434.621094 402.886719 431.789062 402.886719 428.28125 L 402.886719 396.582031 L 395.28125 406.726562 C 392.890625 409.921875 387.527344 409.921875 385.136719 406.726562 L 377.53125 396.582031 L 377.53125 428.28125 C 377.53125 431.789062 374.699219 434.621094 371.191406 434.621094 C 367.6875 434.621094 364.855469 431.789062 364.855469 428.28125 L 364.855469 377.5625 C 364.855469 374.832031 366.597656 372.414062 369.191406 371.550781 C 371.796875 370.675781 374.628906 371.578125 376.265625 373.765625 L 390.210938 392.359375 L 404.152344 373.765625 C 405.796875 371.585938 408.636719 370.691406 411.226562 371.550781 C 413.8125 372.414062 415.5625 374.835938 415.5625 377.5625 L 415.5625 428.28125 C 415.5625 431.789062 412.730469 434.621094 409.226562 434.621094 Z M 409.226562 434.621094 " fill-opacity="1" fill-rule="nonzero"/><path fill="#1d252d" d="M 555.011719 434.621094 C 551.507812 434.621094 548.675781 431.789062 548.675781 428.28125 L 548.675781 396.582031 L 541.066406 406.726562 C 538.679688 409.921875 533.316406 409.921875 530.925781 406.726562 L 523.320312 396.582031 L 523.320312 428.28125 C 523.320312 431.789062 520.488281 434.621094 516.980469 434.621094 C 513.476562 434.621094 510.644531 431.789062 510.644531 428.28125 L 510.644531 377.5625 C 510.644531 374.832031 512.386719 372.414062 514.976562 371.550781 C 517.578125 370.675781 520.417969 371.578125 522.050781 373.765625 L 535.996094 392.359375 L 549.941406 373.765625 C 551.582031 371.585938 554.421875 370.691406 557.015625 371.550781 C 559.601562 372.414062 561.351562 374.835938 561.351562 377.5625 L 561.351562 428.28125 C 561.351562 431.789062 558.519531 434.621094 555.011719 434.621094 Z M 555.011719 434.621094 " fill-opacity="1" fill-rule="nonzero"/><path fill="#1d252d" d="M 434.578125 434.621094 C 431.074219 434.621094 428.242188 431.789062 428.242188 428.28125 L 428.242188 377.5625 C 428.242188 374.058594 431.074219 371.222656 434.578125 371.222656 C 438.085938 371.222656 440.917969 374.058594 440.917969 377.5625 L 440.917969 428.28125 C 440.917969 431.789062 438.085938 434.621094 434.578125 434.621094 Z M 434.578125 434.621094 " fill-opacity="1" fill-rule="nonzero"/><path fill="#1d252d" d="M 478.949219 434.621094 C 464.964844 434.621094 453.59375 423.246094 453.59375 409.261719 L 453.59375 377.5625 C 453.59375 374.058594 456.429688 371.222656 459.933594 371.222656 C 463.4375 371.222656 466.273438 374.058594 466.273438 377.5625 L 466.273438 409.261719 C 466.273438 416.253906 471.957031 421.941406 478.949219 421.941406 C 485.941406 421.941406 491.625 416.253906 491.625 409.261719 L 491.625 377.5625 C 491.625 374.058594 494.460938 371.222656 497.964844 371.222656 C 501.472656 371.222656 504.304688 374.058594 504.304688 377.5625 L 504.304688 409.261719 C 504.304688 423.246094 492.933594 434.621094 478.949219 434.621094 Z M 478.949219 434.621094 " fill-opacity="1" fill-rule="nonzero"/><path fill="#fcee21" d="M 383.871094 219.066406 C 380.363281 219.066406 377.53125 216.234375 377.53125 212.726562 L 377.53125 206.386719 C 377.53125 202.882812 380.363281 200.046875 383.871094 200.046875 C 387.375 200.046875 390.210938 202.882812 390.210938 206.386719 L 390.210938 212.726562 C 390.210938 216.234375 387.375 219.066406 383.871094 219.066406 Z M 383.871094 219.066406 " fill-opacity="1" fill-rule="nonzero"/><path fill="#fcee21" d="M 288.792969 257.105469 C 287.167969 257.105469 285.546875 256.484375 284.308594 255.25 L 277.972656 248.910156 C 275.492188 246.429688 275.492188 242.421875 277.972656 239.945312 C 280.449219 237.464844 284.457031 237.464844 286.933594 239.945312 L 293.273438 246.285156 C 295.75 248.761719 295.75 252.769531 293.273438 255.25 C 292.035156 256.484375 290.414062 257.105469 288.792969 257.105469 Z M 288.792969 257.105469 " fill-opacity="1" fill-rule="nonzero"/><path fill="#fcee21" d="M 478.949219 257.105469 C 477.328125 257.105469 475.703125 256.484375 474.46875 255.25 C 471.988281 252.769531 471.988281 248.761719 474.46875 246.285156 L 480.808594 239.945312 C 483.285156 237.464844 487.292969 237.464844 489.769531 239.945312 C 492.25 242.421875 492.25 246.429688 489.769531 248.910156 L 483.429688 255.25 C 482.195312 256.484375 480.574219 257.105469 478.949219 257.105469 Z M 478.949219 257.105469 " fill-opacity="1" fill-rule="nonzero"/></svg>