<svg xmlns="http://www.w3.org/2000/svg" version="1.1" xmlns:xlink="http://www.w3.org/1999/xlink" xmlns:svgjs="http://svgjs.dev/svgjs" viewBox="0 0 2400 800"><defs><linearGradient x1="50%" y1="0%" x2="50%" y2="100%" id="sssurf-grad"><stop stop-color="hsl(337, 88.6%, 55.3%)" stop-opacity="1" offset="0%"></stop><stop stop-color="hsl(276, 73%, 53%)" stop-opacity="1" offset="100%"></stop></linearGradient></defs><g fill="url(#sssurf-grad)" transform="matrix(1,0,0,1,10.8282470703125,309.50032806396484)"><path d="M-10,10C33.75,13.75,114.58333333333334,35.083333333333336,200,28C285.41666666666663,20.916666666666664,316.66666666666663,-23.791666666666668,400,-24C483.33333333333337,-24.208333333333332,516.6666666666666,24.708333333333332,600,27C683.3333333333334,29.291666666666668,716.6666666666666,-16.333333333333332,800,-13C883.3333333333334,-9.666666666666668,916.6666666666666,44.666666666666664,1000,43C1083.3333333333333,41.333333333333336,1116.6666666666667,-21.625,1200,-21C1283.3333333333333,-20.375,1316.6666666666667,43.291666666666664,1400,46C1483.3333333333333,48.708333333333336,1516.6666666666667,-5.291666666666667,1600,-8C1683.3333333333333,-10.708333333333332,1716.6666666666667,31.541666666666668,1800,33C1883.3333333333333,34.458333333333336,1916.6666666666667,-1.4166666666666665,2000,-1C2083.3333333333335,-0.5833333333333334,2118.75,32.708333333333336,2200,35C2281.25,37.291666666666664,2296.25,-66.04166666666667,2390,10C2483.75,86.04166666666667,3252.0833333333335,214.58333333333331,2650,400C2047.9166666666665,585.4166666666667,156.25,795.8333333333334,-500,900" transform="matrix(1,0,0,1,0,35)" opacity="0.05"></path><path d="M-10,10C33.75,13.75,114.58333333333334,35.083333333333336,200,28C285.41666666666663,20.916666666666664,316.66666666666663,-23.791666666666668,400,-24C483.33333333333337,-24.208333333333332,516.6666666666666,24.708333333333332,600,27C683.3333333333334,29.291666666666668,716.6666666666666,-16.333333333333332,800,-13C883.3333333333334,-9.666666666666668,916.6666666666666,44.666666666666664,1000,43C1083.3333333333333,41.333333333333336,1116.6666666666667,-21.625,1200,-21C1283.3333333333333,-20.375,1316.6666666666667,43.291666666666664,1400,46C1483.3333333333333,48.708333333333336,1516.6666666666667,-5.291666666666667,1600,-8C1683.3333333333333,-10.708333333333332,1716.6666666666667,31.541666666666668,1800,33C1883.3333333333333,34.458333333333336,1916.6666666666667,-1.4166666666666665,2000,-1C2083.3333333333335,-0.5833333333333334,2118.75,32.708333333333336,2200,35C2281.25,37.291666666666664,2296.25,-66.04166666666667,2390,10C2483.75,86.04166666666667,3252.0833333333335,214.58333333333331,2650,400C2047.9166666666665,585.4166666666667,156.25,795.8333333333334,-500,900" transform="matrix(1,0,0,1,0,70)" opacity="1.00"></path></g></svg>